<svg width="176" height="96" viewBox="0 0 176 96" fill="none" xmlns="http://www.w3.org/2000/svg">
<rect width="176" height="96" rx="16" fill="white"/>
<g clip-path="url(#clip0_1_2573)">
<path d="M65.5262 54.6792C65.3646 54.2892 65.2132 53.8792 65.0516 53.5292L64.3043 51.8592L64.274 51.8292C62.0525 47.0292 59.6794 42.1492 57.165 37.3492L57.064 37.1492C56.8116 36.6792 56.5591 36.1592 56.2966 35.6792C55.9735 35.1092 55.6604 34.4992 55.1454 33.9192C54.6434 33.3124 54.0116 32.8234 53.2957 32.4877C52.5797 32.152 51.7974 31.9778 51.0052 31.9778C50.213 31.9778 49.4307 32.152 48.7148 32.4877C47.9988 32.8234 47.367 33.3124 46.865 33.9192C46.3904 34.4992 46.037 35.1092 45.7139 35.6792C45.4614 36.1992 45.2089 36.7092 44.9464 37.1792L44.8454 37.3792C42.3714 42.1792 39.958 47.0592 37.7364 51.8592L37.6758 51.9192C37.4537 52.4392 37.1911 52.9792 36.9387 53.5592C36.7771 53.9092 36.6155 54.2892 36.4539 54.7092C36.0177 55.809 35.8785 57.0024 36.0498 58.1717C36.2211 59.3411 36.6972 60.446 37.4311 61.3776C38.165 62.3093 39.1313 63.0355 40.2349 63.4847C41.3385 63.9339 42.5412 64.0905 43.7245 63.9392C44.859 63.7913 45.9514 63.4171 46.9357 62.8392C48.2485 62.1092 49.5107 61.0492 50.9244 59.5192C52.3382 61.0492 53.6307 62.1092 54.9132 62.8492C56.1464 63.5661 57.5431 63.9617 58.9726 63.9992C60.628 64.006 62.23 63.4195 63.4828 62.3479C64.7357 61.2764 65.5547 59.7921 65.7888 58.1692C66.0592 57.003 65.9677 55.7831 65.5262 54.6692V54.6792ZM51.0254 56.3392C49.2886 54.1392 48.1576 52.1192 47.7738 50.3892C47.6149 49.7482 47.5806 49.083 47.6729 48.4292C47.7436 47.9192 47.9354 47.4692 48.198 47.0892C48.8039 46.2192 49.8641 45.6792 51.0254 45.6792C51.5769 45.6626 52.124 45.7817 52.6174 46.0261C53.1109 46.2704 53.5355 46.6323 53.8529 47.0792C54.1154 47.4792 54.3073 47.9192 54.3679 48.4292C54.4689 49.0092 54.4285 49.6792 54.2669 50.3892C53.8832 52.0892 52.7522 54.1292 51.0254 56.3392ZM63.8903 57.8192C63.7756 58.6432 63.4448 59.423 62.931 60.0809C62.4172 60.7389 61.7383 61.252 60.9619 61.5692C60.1944 61.8892 59.3462 61.9792 58.5182 61.8892C57.7103 61.7892 56.9025 61.5292 56.0744 61.0492C54.6996 60.2077 53.4633 59.1622 52.4088 57.9492C54.5294 55.3492 55.8119 52.9792 56.2966 50.8692C56.5289 49.8692 56.5591 48.9692 56.4582 48.1392C56.3321 47.3525 56.0358 46.6021 55.5897 45.9392C55.0804 45.2205 54.4005 44.6367 53.6099 44.2391C52.8193 43.8416 51.9422 43.6424 51.0557 43.6592C49.1876 43.6592 47.5214 44.5192 46.5116 45.9292C46.057 46.5904 45.7632 47.3468 45.6533 48.1392C45.522 48.9792 45.5523 49.9092 45.8148 50.8692C46.2995 52.9792 47.6123 55.3792 49.7026 57.9692C48.666 59.2054 47.4268 60.2601 46.037 61.0892C45.1988 61.5692 44.4011 61.8192 43.5933 61.9192C42.3369 62.0786 41.0679 61.7405 40.0619 60.9783C39.056 60.2162 38.3944 59.0917 38.2211 57.8492C38.1201 57.0492 38.1908 56.2492 38.5139 55.3492C38.6149 55.0292 38.7664 54.7092 38.928 54.3292C39.1501 53.8092 39.4127 53.2692 39.6651 52.7292L39.7055 52.6592C41.8867 47.8892 44.2698 43.0192 46.7438 38.2492L46.8448 38.0492C47.0973 37.5692 47.3497 37.0592 47.6123 36.5792C47.8748 36.0692 48.1576 35.5792 48.5211 35.1792C48.8358 34.8073 49.229 34.5081 49.673 34.3029C50.117 34.0976 50.601 33.9912 51.0911 33.9912C51.5811 33.9912 52.0651 34.0976 52.5091 34.3029C52.9532 34.5081 53.3463 34.8073 53.661 35.1792C54.0144 35.5792 54.3073 36.0692 54.5698 36.5792C54.8223 37.0592 55.0747 37.5792 55.3373 38.0492L55.4383 38.2492C57.9022 43.0192 60.2853 47.8892 62.5069 52.6592L62.5372 52.6892C62.7997 53.2092 63.0219 53.7892 63.2743 54.2892C63.4359 54.6792 63.5975 54.9892 63.6985 55.3192C63.8903 56.2192 63.9913 57.0192 63.8903 57.8192ZM77.9468 56.1192C77.1859 56.1303 76.4322 55.9715 75.7417 55.6547C75.0512 55.3379 74.4416 54.8712 73.9581 54.2892C72.8716 53.0492 72.295 51.4503 72.3424 49.8092C72.3258 48.1324 72.921 46.5061 74.0187 45.2292C74.5264 44.6399 75.1584 44.1679 75.8702 43.8465C76.5821 43.5251 77.3564 43.3622 78.1387 43.3692C78.8747 43.3493 79.6038 43.515 80.2574 43.8509C80.911 44.1868 81.4676 44.6817 81.8749 45.2892L81.9759 43.7192H84.9245V55.7992H81.9658L81.8648 54.0392C81.4449 54.6879 80.8645 55.2195 80.1788 55.5835C79.4931 55.9476 78.7247 56.132 77.9468 56.1192ZM78.7142 53.2392C79.2999 53.2392 79.8149 53.0792 80.2996 52.7892C80.7439 52.4692 81.1075 52.0492 81.3902 51.5392C81.6427 51.0292 81.7739 50.4192 81.7739 49.7392C81.8133 49.1486 81.6972 48.558 81.437 48.0252C81.1768 47.4923 80.7815 47.0354 80.2895 46.6992C79.8169 46.4076 79.2711 46.253 78.7142 46.253C78.1573 46.253 77.6116 46.4076 77.1389 46.6992C76.6946 47.0192 76.3311 47.4392 76.0484 47.9492C75.7813 48.5117 75.65 49.1279 75.6646 49.7492C75.6253 50.3398 75.7414 50.9305 76.0015 51.4633C76.2617 51.9962 76.6571 52.453 77.149 52.7892C77.6237 53.0792 78.1387 53.2392 78.7142 53.2392ZM89.9736 40.4592C89.9736 40.8092 89.913 41.1292 89.7514 41.3892C89.5898 41.6392 89.3677 41.8692 89.0748 42.0292C88.782 42.1892 88.4689 42.2492 88.1458 42.2492C87.8227 42.2492 87.4995 42.1892 87.2067 42.0292C86.9297 41.8765 86.6968 41.6562 86.5301 41.3892C86.3737 41.1044 86.297 40.7833 86.308 40.4592C86.308 40.0992 86.3787 39.7792 86.5301 39.5292C86.6917 39.2292 86.9239 39.0492 87.2067 38.8892C87.4995 38.7292 87.8126 38.6592 88.1458 38.6592C88.4672 38.6519 88.7851 38.7273 89.0683 38.878C89.3515 39.0288 89.5903 39.2497 89.7615 39.5192C89.9085 39.8108 89.9813 40.1335 89.9736 40.4592ZM86.5402 55.7592V43.6992H89.7514V55.7792H86.5301L86.5402 55.7592ZM98.3347 46.8592V46.8992C98.1833 46.8292 97.9813 46.7992 97.8298 46.7692C97.6279 46.7292 97.4663 46.7292 97.2744 46.7292C96.3757 46.7292 95.6991 46.9892 95.2548 47.5292C94.7701 48.0792 94.548 48.8492 94.548 49.8392V55.7692H91.3267V43.6892H94.2854L94.3864 45.5192C94.7095 44.8792 95.0933 44.3992 95.6386 44.0392C96.181 43.6895 96.8195 43.5148 97.4663 43.5392C97.6986 43.5392 97.9207 43.5592 98.1126 43.5992C98.2136 43.6292 98.2741 43.6292 98.3347 43.6592V46.8592ZM99.6273 55.7592V38.7392H102.838V45.2392C103.293 44.6592 103.808 44.2092 104.454 43.8592C105.477 43.3625 106.64 43.2216 107.753 43.4592C108.867 43.6969 109.868 44.2993 110.594 45.1692C111.683 46.4118 112.259 48.0147 112.209 49.6592C112.226 51.336 111.631 52.9624 110.533 54.2392C110.025 54.8286 109.393 55.3006 108.682 55.622C107.97 55.9433 107.195 56.1062 106.413 56.0992C105.677 56.1192 104.948 55.9534 104.294 55.6176C103.641 55.2817 103.084 54.7867 102.677 54.1792L102.576 55.7492L99.6273 55.7792V55.7592ZM105.838 53.2392C106.413 53.2392 106.928 53.0792 107.413 52.7892C107.857 52.4692 108.221 52.0492 108.503 51.5392C108.766 51.0292 108.887 50.4192 108.887 49.7392C108.887 49.0692 108.766 48.4592 108.503 47.9492C108.238 47.4575 107.866 47.0304 107.413 46.6992C106.94 46.4076 106.394 46.253 105.838 46.253C105.281 46.253 104.735 46.4076 104.262 46.6992C103.808 47.0192 103.454 47.4392 103.162 47.9492C102.895 48.5117 102.763 49.1279 102.778 49.7492C102.739 50.3398 102.855 50.9305 103.115 51.4633C103.375 51.9962 103.77 52.453 104.262 52.7892C104.737 53.0792 105.252 53.2392 105.838 53.2392ZM113.421 55.7692V43.6892H116.38L116.481 45.2592C116.853 44.6574 117.38 44.1649 118.009 43.8326C118.637 43.5003 119.344 43.3404 120.056 43.3692C120.87 43.3553 121.67 43.5794 122.356 44.0133C123.042 44.4473 123.584 45.072 123.913 45.8092C124.266 46.5692 124.458 47.5092 124.458 48.5592V55.7992H121.237V48.9792C121.237 48.1392 121.045 47.4792 120.661 46.9892C120.278 46.5092 119.753 46.2492 119.086 46.2492C118.601 46.2492 118.177 46.3492 117.804 46.5692C117.45 46.7992 117.157 47.0892 116.935 47.4992C116.711 47.9137 116.599 48.379 116.612 48.8492V55.7692H113.421ZM126.064 55.7692V38.7292H129.285V45.2292C129.722 44.646 130.289 44.1715 130.943 43.8434C131.597 43.5154 132.319 43.3427 133.052 43.3392C133.813 43.3282 134.566 43.487 135.257 43.8038C135.947 44.1206 136.557 44.5873 137.041 45.1692C138.122 46.4118 138.694 48.0098 138.646 49.6492C138.664 51.3262 138.068 52.9528 136.97 54.2292C136.462 54.8186 135.83 55.2906 135.118 55.612C134.406 55.9333 133.632 56.0962 132.85 56.0892C132.114 56.1092 131.385 55.9434 130.731 55.6076C130.077 55.2717 129.521 54.7767 129.114 54.1692L129.023 55.7392L126.064 55.7692ZM132.305 53.2392C132.89 53.2392 133.405 53.0792 133.88 52.7892C134.334 52.4692 134.688 52.0492 134.981 51.5392C135.233 51.0292 135.364 50.4192 135.364 49.7392C135.404 49.1486 135.288 48.558 135.027 48.0252C134.767 47.4923 134.372 47.0354 133.88 46.6992C133.407 46.4076 132.861 46.253 132.305 46.253C131.748 46.253 131.202 46.4076 130.729 46.6992C130.285 47.0192 129.921 47.4392 129.639 47.9492C129.357 48.5067 129.225 49.1266 129.255 49.7492C129.216 50.3398 129.332 50.9305 129.592 51.4633C129.852 51.9962 130.247 52.453 130.739 52.7892C131.214 53.0792 131.699 53.2392 132.305 53.2392Z" fill="#FF385C"/>
</g>
<defs>
<clipPath id="clip0_1_2573">
<rect width="103" height="32" fill="white" transform="translate(36 32)"/>
</clipPath>
</defs>
</svg>
