<svg width="176" height="96" viewBox="0 0 176 96" fill="none" xmlns="http://www.w3.org/2000/svg">
<rect width="176" height="96" rx="16" fill="white"/>
<g clip-path="url(#clip0_1_2599)">
<path fill-rule="evenodd" clip-rule="evenodd" d="M100.899 57.025C94.9137 61.5733 86.2381 64 78.7685 64C68.295 64 58.8662 60.0064 51.7329 53.3642C51.1724 52.8418 51.6746 52.13 52.3471 52.5368C60.0453 57.1544 69.5638 59.9324 79.3962 59.9324C86.0273 59.9324 93.322 58.518 100.029 55.5828C101.043 55.1391 101.89 56.2669 100.899 57.025Z" fill="#FF9900"/>
<path fill-rule="evenodd" clip-rule="evenodd" d="M103.388 54.0899C102.626 53.0822 98.3304 53.6138 96.4025 53.8495C95.8152 53.9235 95.7255 53.3965 96.2545 53.0175C99.6755 50.5353 105.289 51.2518 105.943 52.0838C106.598 52.9204 105.773 58.7214 102.558 61.4901C102.065 61.9154 101.594 61.6889 101.814 61.125C102.536 59.2668 104.154 55.1021 103.388 54.0899Z" fill="#FF9900"/>
<path fill-rule="evenodd" clip-rule="evenodd" d="M96.5369 35.4945V33.0816C96.5369 32.7165 96.8059 32.4715 97.1287 32.4715H107.607C107.943 32.4715 108.212 32.7211 108.212 33.0816V35.1478C108.207 35.4945 107.925 35.9474 107.423 36.6639L101.993 44.6558C104.011 44.605 106.141 44.9146 107.97 45.9778C108.382 46.2181 108.494 46.5694 108.526 46.9161V49.4907C108.526 49.842 108.149 50.2534 107.755 50.0407C104.531 48.2982 100.249 48.1086 96.6848 50.0592C96.3216 50.2626 95.9406 49.8559 95.9406 49.5046V47.0594C95.9406 46.6665 95.945 45.9963 96.3261 45.4L102.617 36.1H97.1421C96.8059 36.1 96.5369 35.855 96.5369 35.4945Z" fill="black"/>
<path fill-rule="evenodd" clip-rule="evenodd" d="M58.3147 50.5492H55.1269C54.822 50.5261 54.5799 50.2903 54.5575 49.9899V33.1232C54.5575 32.7858 54.831 32.5177 55.1717 32.5177H58.1443C58.4537 32.5316 58.7003 32.7766 58.7227 33.0816V35.2865H58.781C59.5566 33.1556 61.0138 32.1618 62.9776 32.1618C64.9727 32.1618 66.2191 33.1556 67.1158 35.2865C67.887 33.1556 69.6401 32.1618 71.5187 32.1618C72.8548 32.1618 74.3164 32.7303 75.2086 34.0061C76.2174 35.4251 76.0112 37.4867 76.0112 39.294L76.0067 49.939C76.0067 50.2765 75.7332 50.5492 75.3924 50.5492H72.2091C71.8908 50.5261 71.6352 50.2626 71.6352 49.939V40.9996C71.6352 40.2878 71.698 38.5128 71.5456 37.8379C71.3079 36.7055 70.5951 36.3866 69.6715 36.3866C68.9003 36.3866 68.0933 36.9181 67.766 37.7686C67.4387 38.6191 67.47 40.0428 67.47 40.9996V49.939C67.47 50.2765 67.1966 50.5492 66.8558 50.5492H63.6725C63.3497 50.5261 63.0986 50.2626 63.0986 49.939L63.0941 40.9996C63.0941 39.1183 63.3945 36.3496 61.1303 36.3496C58.8393 36.3496 58.9289 39.049 58.9289 40.9996V49.939C58.9289 50.2765 58.6554 50.5492 58.3147 50.5492" fill="black"/>
<path fill-rule="evenodd" clip-rule="evenodd" d="M117.233 32.1618C121.963 32.1618 124.523 36.3496 124.523 41.6744C124.523 46.819 121.694 50.9005 117.233 50.9005C112.588 50.9005 110.059 46.7127 110.059 41.4942C110.059 36.2433 112.619 32.1618 117.233 32.1618ZM117.26 35.6054C114.91 35.6054 114.762 38.9057 114.762 40.9626C114.762 43.0241 114.731 47.4245 117.233 47.4245C119.703 47.4245 119.82 43.8746 119.82 41.7114C119.82 40.2878 119.761 38.5868 119.344 37.2371C118.986 36.063 118.273 35.6054 117.26 35.6054Z" fill="black"/>
<path fill-rule="evenodd" clip-rule="evenodd" d="M130.656 50.5492H127.482C127.164 50.5261 126.908 50.2626 126.908 49.939L126.904 33.0678C126.931 32.7581 127.195 32.5177 127.518 32.5177H130.473C130.751 32.5316 130.979 32.7257 131.042 32.9892V35.5684H131.1C131.992 33.2619 133.243 32.1618 135.445 32.1618C136.875 32.1618 138.269 32.6934 139.166 34.1494C140 35.4991 140 37.7686 140 39.4003V50.0176C139.964 50.3135 139.7 50.5492 139.386 50.5492H136.189C135.898 50.5261 135.656 50.3042 135.624 50.0176V40.8563C135.624 39.012 135.83 36.3126 133.629 36.3126C132.853 36.3126 132.14 36.8488 131.786 37.6623C131.338 38.6931 131.28 39.7192 131.28 40.8563V49.939C131.275 50.2765 130.997 50.5492 130.656 50.5492" fill="black"/>
<path fill-rule="evenodd" clip-rule="evenodd" d="M88.184 42.4926C88.184 43.7729 88.2154 44.8407 87.5877 45.9778C87.0811 46.9022 86.274 47.4708 85.3818 47.4708C84.1578 47.4708 83.4404 46.5093 83.4404 45.0903C83.4404 42.2892 85.875 41.7807 88.184 41.7807V42.4926ZM91.3987 50.503C91.188 50.6971 90.8831 50.711 90.6455 50.5815C89.5873 49.6756 89.3946 49.255 88.8162 48.3906C87.0676 50.2303 85.8257 50.7803 83.5615 50.7803C80.8759 50.7803 78.791 49.0747 78.791 45.6588C78.791 42.9918 80.1899 41.1752 82.1895 40.2877C83.9202 39.502 86.3368 39.3633 88.184 39.146V38.7208C88.184 37.9396 88.2423 37.0152 87.7939 36.3403C87.4084 35.7348 86.6641 35.4852 86.005 35.4852C84.79 35.4852 83.7094 36.1277 83.4449 37.4589C83.3911 37.7547 83.1804 38.0459 82.889 38.0598L79.7998 37.7178C79.5398 37.6577 79.2483 37.4404 79.3246 37.029C80.033 33.1648 83.4225 32 86.4534 32C88.0047 32 90.0312 32.4253 91.2552 33.6363C92.8065 35.1293 92.6586 37.1215 92.6586 39.2893V44.4108C92.6586 45.95 93.2773 46.6249 93.8601 47.4569C94.0619 47.7527 94.1067 48.1086 93.8467 48.3305C93.1966 48.8898 92.0398 49.9298 91.4032 50.5122L91.3987 50.5029" fill="black"/>
<path fill-rule="evenodd" clip-rule="evenodd" d="M46.393 42.4928C46.393 43.7731 46.4244 44.8409 45.7967 45.978C45.29 46.9024 44.4875 47.471 43.5908 47.471C42.3668 47.471 41.6539 46.5095 41.6539 45.0905C41.6539 42.2894 44.0884 41.7809 46.393 41.7809V42.4928ZM49.6077 50.5032C49.3969 50.6973 49.0921 50.7112 48.8544 50.5817C47.7963 49.6758 47.608 49.2551 47.0252 48.3908C45.2766 50.2304 44.0391 50.7805 41.7705 50.7805C39.0893 50.7805 37 49.0749 37 45.659C37 42.992 38.4033 41.1754 40.3985 40.2879C42.1291 39.5022 44.5458 39.3635 46.393 39.1462V38.721C46.393 37.9398 46.4513 37.0154 46.0074 36.3405C45.6173 35.735 44.8731 35.4854 44.2185 35.4854C43.0034 35.4854 41.9184 36.1279 41.6539 37.4591C41.6001 37.7549 41.3894 38.0461 41.1024 38.06L38.0088 37.718C37.7487 37.6579 37.4618 37.4406 37.5335 37.0292C38.2464 33.165 41.6315 32.0002 44.6623 32.0002C46.2136 32.0002 48.2402 32.4255 49.4642 33.6365C51.0155 35.1295 50.8675 37.1217 50.8675 39.2895V44.411C50.8675 45.9502 51.4863 46.6251 52.0691 47.4571C52.2754 47.7529 52.3202 48.1088 52.0602 48.3307C51.41 48.89 50.2533 49.93 49.6166 50.5124L49.6077 50.5031" fill="black"/>
</g>
<defs>
<clipPath id="clip0_1_2599">
<rect width="103" height="32" fill="white" transform="translate(37 32)"/>
</clipPath>
</defs>
</svg>
