<svg width="176" height="96" viewBox="0 0 176 96" fill="none" xmlns="http://www.w3.org/2000/svg">
<rect width="176" height="96" rx="16" fill="white"/>
<g clip-path="url(#clip0_1_2581)">
<path d="M18.4558 47.2101C18.4011 47.1409 18.3289 47.0866 18.2462 47.0523C18.1635 47.018 18.073 47.0049 17.9835 47.0143C17.8941 47.0237 17.8086 47.0553 17.7354 47.1059C17.6623 47.1566 17.6038 47.2247 17.5658 47.3036L13.0564 56.0232C13.0153 56.1027 12.9959 56.191 13.0001 56.2797C13.0042 56.3685 13.0317 56.4547 13.08 56.5303C13.1283 56.6059 13.1958 56.6683 13.276 56.7115C13.3562 56.7548 13.4466 56.7775 13.5384 56.7775H19.8176C19.9181 56.7798 20.0172 56.7538 20.1028 56.7026C20.1884 56.6515 20.2567 56.5774 20.2996 56.4894C21.6541 53.7825 20.8332 49.6667 18.4558 47.2101Z" fill="url(#paint0_linear_1_2581)"/>
<path d="M21.7632 39.2791C20.6396 40.9512 19.9848 42.8771 19.8631 44.8677C19.7414 46.8584 20.1569 48.8455 21.0689 50.6339L24.0962 56.4894C24.1409 56.5759 24.2097 56.6488 24.2949 56.6997C24.38 56.7505 24.4781 56.7775 24.5782 56.7775H30.8562C30.9481 56.7775 31.0384 56.7548 31.1187 56.7115C31.1989 56.6683 31.2664 56.6059 31.3147 56.5303C31.3629 56.4547 31.3905 56.3685 31.3946 56.2797C31.3987 56.1909 31.3793 56.1026 31.3383 56.0232C31.3383 56.0232 22.8922 39.6845 22.6799 39.2759C22.638 39.1927 22.5726 39.1226 22.4914 39.0737C22.4101 39.0248 22.3162 38.9991 22.2205 38.9994C22.1248 38.9998 22.0312 39.0262 21.9503 39.0757C21.8694 39.1251 21.8046 39.1957 21.7632 39.2791Z" fill="#2684FF"/>
<path d="M95.401 46.2706C95.401 48.4298 96.4366 50.1441 100.488 50.9009C102.905 51.3916 103.411 51.7689 103.411 52.5481C103.411 53.3049 102.904 53.7948 101.201 53.7948C99.1437 53.759 97.1273 53.2313 95.3319 52.2588V55.7757C96.5519 56.3544 98.1629 57 101.155 57C105.39 57 107.071 55.1734 107.071 52.4589L95.401 46.2706ZM107.071 52.4589C107.071 49.899 105.667 48.6967 101.708 47.8734C99.5211 47.4058 98.9917 46.9385 98.9917 46.2706C98.9917 45.4255 99.7742 45.0686 101.224 45.0686C102.974 45.0686 104.7 45.5806 106.334 46.293V42.9315C104.767 42.2418 103.061 41.8995 101.339 41.9299C97.4264 41.9299 95.401 43.5771 95.401 46.2706" fill="#0052CC"/>
<path d="M149.811 42.1524V56.7776H153.033V45.6251L154.392 48.5855L158.949 56.7776H163V42.1524H159.778V51.5909L158.558 48.8527L154.898 42.1524H149.811Z" fill="#0052CC"/>
<path d="M129.316 42.1524H125.794V56.7776H129.316V42.1524Z" fill="#0052CC"/>
<path d="M121.731 52.4589C121.731 49.899 120.327 48.6967 116.368 47.8734C114.181 47.4058 113.652 46.9385 113.652 46.2706C113.652 45.4255 114.434 45.0686 115.884 45.0686C117.634 45.0686 119.36 45.5806 120.994 46.293V42.9315C119.427 42.2418 117.721 41.8995 115.999 41.9299C112.086 41.9299 110.061 43.5771 110.061 46.2706C110.061 48.4298 111.097 50.1441 115.148 50.9009C117.565 51.3916 118.071 51.7689 118.071 52.5481C118.071 53.3049 117.564 53.7948 115.861 53.7948C113.804 53.759 111.787 53.2313 109.992 52.2588V55.7757C111.212 56.3544 112.823 57 115.815 57C120.05 57 121.731 55.1734 121.731 52.4589Z" fill="#0052CC"/>
<path d="M68.0436 42.1524V56.7776H75.2821L76.4217 53.6165H71.5882V42.1524H68.0436Z" fill="#0052CC"/>
<path d="M53.7427 42.1524V45.3132H57.6556V56.7776H61.2001V45.3132H65.3893V42.1524H53.7427Z" fill="#0052CC"/>
<path d="M48.603 42.1524H43.9577L38.6843 56.7776H42.7114L43.459 54.3144C45.3002 54.8373 47.2579 54.8373 49.0991 54.3144L49.8467 56.7776H53.8746L48.603 42.1524ZM46.2802 51.677C45.6242 51.677 44.9716 51.5862 44.3422 51.4074L46.2802 45.025L48.2182 51.4096C47.5887 51.5876 46.9361 51.6777 46.2802 51.677Z" fill="#0052CC"/>
<path d="M87.7608 42.1524H83.1158L77.8425 56.7776H81.8704L82.618 54.3144C84.4592 54.8373 86.4169 54.8373 88.2581 54.3144L89.0057 56.7776H93.0336L87.7608 42.1524ZM85.4383 51.677C84.7823 51.677 84.1297 51.5862 83.5003 51.4074L85.4383 45.025L87.3763 51.4096C86.7468 51.5876 86.0942 51.6777 85.4383 51.677Z" fill="#0052CC"/>
<path d="M142.006 42.1524H137.361L132.088 56.7776H136.116L136.863 54.3144C138.704 54.8373 140.662 54.8373 142.503 54.3144L143.251 56.7776H147.279L142.006 42.1524ZM139.682 51.677C139.026 51.677 138.374 51.5862 137.744 51.4074L139.682 45.025L141.62 51.4096C140.991 51.5876 140.338 51.6777 139.682 51.677Z" fill="#0052CC"/>
</g>
<defs>
<linearGradient id="paint0_linear_1_2581" x1="20.9271" y1="48.5558" x2="16.4028" y2="56.6586" gradientUnits="userSpaceOnUse">
<stop stop-color="#0052CC"/>
<stop offset="0.923" stop-color="#2684FF"/>
</linearGradient>
<clipPath id="clip0_1_2581">
<rect width="150" height="18" fill="white" transform="translate(13 39)"/>
</clipPath>
</defs>
</svg>
