<svg width="176" height="96" viewBox="0 0 176 96" fill="none" xmlns="http://www.w3.org/2000/svg">
<rect width="176" height="96" rx="16" fill="white"/>
<path fill-rule="evenodd" clip-rule="evenodd" d="M104.2 40.31L102.2 36.93L98.65 38.62L96.65 35.23L93.1 36.93L91.11 33.53L87.56 35.23L85.56 31.84L82.01 33.54L80.02 30.14L76.46 31.84L68.93 56.36L78.08 59.16C78.4247 58.0548 79.1533 57.1094 80.1342 56.4945C81.1151 55.8797 82.2836 55.636 83.4285 55.8075C84.5734 55.979 85.6192 56.5543 86.3769 57.4296C87.1346 58.3049 87.5543 59.4223 87.56 60.58V60.68C87.58 61.12 87.53 61.56 87.4 62L96.7 64.85L104.2 40.31Z" fill="#D61920"/>
<path fill-rule="evenodd" clip-rule="evenodd" d="M76.78 54.34C76.5487 54.3017 76.3388 54.1818 76.1883 54.002C76.0379 53.8222 75.9568 53.5944 75.96 53.36V41.36C75.9587 41.2283 75.9836 41.0977 76.0334 40.9757C76.0832 40.8538 76.1568 40.743 76.2499 40.6499C76.343 40.5568 76.4538 40.4832 76.5757 40.4334C76.6977 40.3836 76.8283 40.3587 76.96 40.36H85.63C86.1408 40.3587 86.6469 40.458 87.1194 40.6523C87.5918 40.8466 88.0214 41.132 88.3836 41.4923C88.7457 41.8526 89.0334 42.2807 89.2301 42.7521C89.4268 43.2236 89.5287 43.7292 89.53 44.24V53.36C89.5297 53.5073 89.4969 53.6527 89.434 53.7858C89.371 53.9189 89.2794 54.0365 89.1657 54.1301C89.052 54.2238 88.919 54.2911 88.7763 54.3274C88.6336 54.3637 88.4846 54.368 88.34 54.34C88.1105 54.2996 87.9029 54.1788 87.7545 53.9992C87.6061 53.8196 87.5265 53.593 87.53 53.36V44.25C87.53 43.7461 87.3298 43.2628 86.9735 42.9065C86.6172 42.5502 86.1339 42.35 85.63 42.35H83.74V53.35C83.7408 53.484 83.7146 53.6168 83.6631 53.7405C83.6115 53.8641 83.5357 53.9762 83.44 54.07C83.3261 54.1829 83.1866 54.2665 83.0333 54.3135C82.88 54.3605 82.7176 54.3696 82.56 54.34C82.3287 54.3017 82.1188 54.1818 81.9683 54.002C81.8179 53.8222 81.7368 53.5944 81.74 53.36V42.35H77.96V53.35C77.9609 53.4971 77.9294 53.6426 77.8676 53.7761C77.8059 53.9096 77.7154 54.0279 77.6027 54.1224C77.4901 54.217 77.3579 54.2855 77.2157 54.3231C77.0735 54.3607 76.9247 54.3665 76.78 54.34ZM91.2 59.57C90.967 59.5315 90.7557 59.4101 90.605 59.2282C90.4543 59.0463 90.3744 58.8161 90.38 58.58C90.3811 58.3177 90.4852 58.0663 90.67 57.88C90.8546 57.6916 91.1062 57.5838 91.37 57.58C92.22 57.58 92.95 57.04 93.19 56.23L94.22 52.8L90.85 41.53C90.8098 41.404 90.795 41.2712 90.8065 41.1394C90.818 41.0076 90.8555 40.8794 90.9169 40.7622C90.9783 40.645 91.0623 40.5411 91.1641 40.4567C91.2659 40.3722 91.3835 40.3087 91.51 40.27C91.7619 40.2002 92.031 40.2297 92.2617 40.3525C92.4924 40.4753 92.6672 40.6821 92.75 40.93L95.25 49.33L97.79 40.93C97.91 40.47 98.42 40.16 98.94 40.26L99.01 40.27C99.55 40.44 99.85 41.01 99.69 41.54L96.22 53.1L95.12 56.8C94.8731 57.5963 94.3837 58.2955 93.72 58.8C93.0449 59.3063 92.2238 59.58 91.38 59.58C91.3198 59.5823 91.2595 59.579 91.2 59.57Z" fill="#FEFEFE"/>
<path fill-rule="evenodd" clip-rule="evenodd" d="M30.08 52.15H32.04C32.5625 52.15 33.0635 51.9424 33.433 51.573C33.8024 51.2036 34.01 50.7025 34.01 50.18V44.41C34.0113 44.1513 33.9616 43.8949 33.8639 43.6553C33.7661 43.4158 33.6221 43.1979 33.4401 43.0141C33.2581 42.8302 33.0416 42.684 32.8031 42.5838C32.5646 42.4836 32.3087 42.4313 32.05 42.43H30.08V52.13V52.15ZM28.85 54.21C28.6099 54.1694 28.3922 54.0443 28.2363 53.8572C28.0804 53.6702 27.9966 53.4335 28 53.19V35.27C27.9982 35.1329 28.0238 34.9968 28.0754 34.8697C28.1269 34.7427 28.2032 34.6272 28.3 34.53C28.417 34.4085 28.5621 34.3175 28.7226 34.2652C28.883 34.2129 29.0538 34.2008 29.22 34.23C29.72 34.33 30.08 34.75 30.08 35.26V40.36H32.04C32.5714 40.3587 33.0978 40.4622 33.5891 40.6647C34.0804 40.8671 34.5269 41.1645 34.9032 41.5397C35.2794 41.915 35.5778 42.3608 35.7815 42.8516C35.9852 43.3425 36.09 43.8686 36.09 44.4V50.17C36.0873 51.2407 35.6608 52.2667 34.9038 53.0238C34.1467 53.7809 33.1206 54.2074 32.05 54.21H29.04C28.9731 54.214 28.9061 54.2106 28.84 54.2L28.85 54.21Z" fill="#333545"/>
<path fill-rule="evenodd" clip-rule="evenodd" d="M43.14 42.35C43.0277 42.3304 42.9139 42.3203 42.8 42.32C42.5405 42.3173 42.2831 42.3665 42.0429 42.4645C41.8027 42.5626 41.5845 42.7076 41.401 42.891C41.2175 43.0745 41.0725 43.2927 40.9745 43.533C40.8764 43.7732 40.8273 44.0306 40.83 44.29V50.3C40.8286 50.5591 40.8787 50.8158 40.9772 51.0555C41.0758 51.2951 41.2208 51.5128 41.404 51.696C41.5872 51.8791 41.8049 52.0242 42.0445 52.1227C42.2841 52.2213 42.5409 52.2713 42.8 52.27C43.3224 52.27 43.8235 52.0624 44.193 51.693C44.5624 51.3236 44.77 50.8225 44.77 50.3V44.3C44.77 43.33 44.08 42.52 43.14 42.35ZM42.09 54.3C41.1524 54.1351 40.3031 53.6443 39.6921 52.9143C39.081 52.1843 38.7473 51.262 38.75 50.31V44.3C38.7482 43.7681 38.8525 43.2412 39.0569 42.7501C39.2612 42.259 39.5614 41.8137 39.94 41.44C40.3154 41.0646 40.7614 40.7671 41.2522 40.5646C41.743 40.3621 42.269 40.2586 42.8 40.26C43.8714 40.26 44.899 40.6856 45.6567 41.4433C46.4143 42.2009 46.84 43.2285 46.84 44.3V50.31C46.84 51.39 46.42 52.41 45.65 53.18C45.276 53.5546 44.8317 53.8517 44.3426 54.0542C43.8536 54.2567 43.3293 54.3606 42.8 54.36C42.562 54.361 42.3244 54.3409 42.09 54.3ZM53.89 42.36C53.7777 42.3403 53.6639 42.3303 53.55 42.33C53.2905 42.3273 53.0331 42.3765 52.7929 42.4745C52.5527 42.5726 52.3345 42.7176 52.151 42.901C51.9675 43.0845 51.8225 43.3027 51.7245 43.543C51.6264 43.7832 51.5773 44.0406 51.58 44.3V50.31C51.5786 50.5691 51.6287 50.8258 51.7272 51.0654C51.8258 51.3051 51.9708 51.5228 52.154 51.706C52.3372 51.8891 52.5549 52.0342 52.7945 52.1327C53.0341 52.2313 53.2909 52.2813 53.55 52.28C53.809 52.2813 54.0658 52.2313 54.3054 52.1327C54.545 52.0342 54.7627 51.8891 54.9459 51.706C55.1291 51.5228 55.2742 51.3051 55.3727 51.0654C55.4712 50.8258 55.5213 50.5691 55.52 50.31V44.3C55.52 43.34 54.83 42.53 53.89 42.36ZM52.84 54.3C51.9042 54.1329 51.0573 53.6413 50.4482 52.9115C49.8392 52.1817 49.5069 51.2605 49.51 50.31V44.3C49.5115 43.7106 49.6417 43.1287 49.8914 42.5949C50.1411 42.0611 50.5043 41.5881 50.9556 41.2092C51.407 40.8302 51.9356 40.5543 52.5046 40.4007C53.0736 40.2471 53.6692 40.2196 54.25 40.32C55.1877 40.4825 56.0379 40.9709 56.6508 41.699C57.2637 42.4272 57.5998 43.3483 57.6 44.3V50.31C57.6012 50.8442 57.4957 51.3733 57.2896 51.8661C57.0835 52.359 56.7811 52.8057 56.4 53.18C56.026 53.5546 55.5817 53.8517 55.0926 54.0542C54.6036 54.2567 54.0793 54.3606 53.55 54.36C53.31 54.36 53.07 54.34 52.84 54.3ZM61.11 54.34C60.8698 54.2994 60.6522 54.1743 60.4963 53.9872C60.3404 53.8002 60.2566 53.5635 60.26 53.32V35.27C60.26 34.99 60.36 34.72 60.56 34.53C60.6779 34.4135 60.8222 34.3273 60.9807 34.2785C61.1391 34.2298 61.3069 34.22 61.47 34.25C61.97 34.33 62.34 34.76 62.34 35.27V45.95L67.12 40.59C67.36 40.33 67.72 40.21 68.08 40.27C68.2615 40.3004 68.4315 40.3788 68.5725 40.4972C68.7134 40.6156 68.82 40.7695 68.8813 40.9431C68.9425 41.1166 68.9561 41.3034 68.9207 41.484C68.8853 41.6646 68.8022 41.8324 68.68 41.97L65.07 46L68.8 52.83C68.8671 52.9452 68.9106 53.0727 68.9277 53.2049C68.9449 53.3371 68.9355 53.4715 68.9 53.6C68.8613 53.7325 68.7962 53.8557 68.7085 53.9623C68.6209 54.0689 68.5125 54.1565 68.39 54.22C68.1782 54.3417 67.9301 54.3843 67.69 54.34C67.5406 54.3147 67.3986 54.2568 67.2741 54.1704C67.1497 54.084 67.0458 53.9712 66.97 53.84L63.61 47.66L62.33 49.07V53.32C62.33 53.5958 62.2204 53.8604 62.0254 54.0554C61.8303 54.2504 61.5658 54.36 61.29 54.36C61.22 54.36 61.16 54.36 61.09 54.34H61.11ZM106.92 54.33C106.358 54.2358 105.823 54.0173 105.356 53.6903C104.889 53.3633 104.501 52.9361 104.22 52.44C104.083 52.1969 104.047 51.9094 104.12 51.64C104.2 51.38 104.37 51.16 104.6 51.02C104.813 50.9033 105.061 50.8644 105.3 50.91C105.6 50.96 105.87 51.14 106.02 51.41C106.29 51.87 106.72 52.17 107.25 52.26C107.523 52.3075 107.804 52.2925 108.07 52.2163C108.337 52.1402 108.583 52.0047 108.79 51.82C109.19 51.45 109.39 50.92 109.34 50.4C109.329 50.1335 109.255 49.8733 109.125 49.6405C108.995 49.4077 108.811 49.2088 108.59 49.06L105.79 47.07C105.334 46.7497 104.954 46.3326 104.677 45.8487C104.401 45.3647 104.234 44.8257 104.19 44.27C104.154 43.7094 104.246 43.1479 104.459 42.6281C104.672 42.1083 105.001 41.6439 105.42 41.27C105.829 40.8897 106.318 40.6053 106.851 40.4375C107.383 40.2697 107.947 40.2228 108.5 40.3C109.68 40.5 110.64 41.18 111.19 42.14C111.322 42.3799 111.357 42.6618 111.286 42.9266C111.215 43.1913 111.045 43.4183 110.81 43.56C110.598 43.6817 110.35 43.7243 110.11 43.68C109.961 43.6547 109.819 43.5968 109.694 43.5104C109.57 43.424 109.466 43.3112 109.39 43.18C109.265 42.9678 109.094 42.7861 108.89 42.6478C108.686 42.5094 108.453 42.418 108.21 42.38C107.961 42.3349 107.705 42.3485 107.462 42.4196C107.219 42.4908 106.995 42.6176 106.81 42.79C106.629 42.9609 106.488 43.1695 106.396 43.4011C106.304 43.6326 106.265 43.8815 106.28 44.13C106.3 44.62 106.58 45.1 107 45.38L109.8 47.33C110.275 47.6628 110.668 48.0997 110.949 48.6075C111.23 49.1153 111.391 49.6805 111.42 50.26C111.466 50.8368 111.377 51.4164 111.16 51.9528C110.943 52.4893 110.604 52.9676 110.17 53.35C109.748 53.7425 109.243 54.0359 108.693 54.2089C108.143 54.3819 107.561 54.4301 106.99 54.35L106.91 54.33H106.92ZM114.95 54.36C114.71 54.3178 114.492 54.1925 114.335 54.0061C114.178 53.8196 114.091 53.5839 114.09 53.34V35.29C114.089 35.1531 114.115 35.0172 114.166 34.8904C114.218 34.7637 114.295 34.6485 114.392 34.5516C114.488 34.4548 114.604 34.3782 114.73 34.3264C114.857 34.2747 114.993 34.2487 115.13 34.25L115.33 34.26C115.83 34.36 116.17 34.77 116.17 35.29V40.39H118.14C118.671 40.3887 119.197 40.4923 119.688 40.6948C120.178 40.8974 120.624 41.1949 121 41.5703C121.375 41.9458 121.673 42.3916 121.875 42.8824C122.078 43.3731 122.181 43.8991 122.18 44.43V53.33C122.181 53.481 122.148 53.6303 122.085 53.7674C122.022 53.9045 121.929 54.026 121.814 54.1234C121.698 54.2207 121.563 54.2914 121.417 54.3306C121.271 54.3698 121.119 54.3764 120.97 54.35C120.47 54.26 120.11 53.83 120.11 53.32V44.42C120.11 44.1618 120.059 43.9061 119.96 43.6676C119.861 43.4292 119.715 43.2127 119.532 43.0305C119.349 42.8484 119.132 42.7042 118.893 42.6063C118.654 42.5084 118.398 42.4587 118.14 42.46H116.17V53.33C116.171 53.482 116.139 53.6324 116.075 53.7703C116.011 53.9083 115.917 54.0304 115.801 54.1279C115.684 54.2254 115.547 54.2959 115.4 54.3343C115.253 54.3727 115.099 54.378 114.95 54.35V54.36ZM129.23 42.37C128.947 42.3186 128.655 42.3302 128.377 42.4041C128.099 42.478 127.84 42.6124 127.619 42.7976C127.399 42.9828 127.222 43.2144 127.101 43.4758C126.98 43.7372 126.918 44.022 126.92 44.31V50.32C126.919 50.5782 126.968 50.8342 127.066 51.0731C127.164 51.3121 127.308 51.5293 127.49 51.7124C127.673 51.8955 127.889 52.0407 128.128 52.1399C128.366 52.239 128.622 52.29 128.88 52.29C129.4 52.29 129.9 52.09 130.27 51.72C130.455 51.5372 130.602 51.3191 130.702 51.0786C130.801 50.8382 130.852 50.5803 130.85 50.32V44.3C130.85 43.34 130.17 42.52 129.22 42.36L129.23 42.37ZM128.17 54.29C127.235 54.1251 126.388 53.6354 125.779 52.9073C125.17 52.1792 124.837 51.2594 124.84 50.31V44.3C124.84 43.7098 124.969 43.1268 125.218 42.5917C125.467 42.0566 125.83 41.5825 126.282 41.2024C126.733 40.8223 127.262 40.5455 127.832 40.3914C128.402 40.2372 128.998 40.2094 129.58 40.31C130.519 40.4728 131.371 40.9627 131.984 41.6929C132.597 42.4231 132.932 43.3466 132.93 44.3V50.31C132.93 50.8426 132.825 51.3699 132.618 51.861C132.412 52.3522 132.11 52.7972 131.73 53.17C131.271 53.6306 130.708 53.9731 130.088 54.1682C129.468 54.3632 128.81 54.405 128.17 54.29Z" fill="#333545"/>
<path fill-rule="evenodd" clip-rule="evenodd" d="M148.9 41.54C148.934 41.413 148.943 41.2804 148.926 41.15C148.909 41.0196 148.866 40.8939 148.8 40.78C148.724 40.6586 148.625 40.5536 148.509 40.4712C148.392 40.3887 148.26 40.3305 148.12 40.3C147.862 40.2513 147.595 40.3028 147.374 40.444C147.153 40.5852 146.994 40.8056 146.93 41.06C146.93 41.11 145.81 45.62 144.93 49.05L144.91 49.12L144.89 49.05L142.89 41.07C142.851 40.8752 142.754 40.6969 142.611 40.5592C142.468 40.4215 142.286 40.331 142.09 40.3C142.031 40.2883 141.97 40.2816 141.91 40.28C141.45 40.28 141.05 40.6 140.92 41.06C140.91 41.11 139.79 45.62 138.92 49.05L138.9 49.12L138.88 49.05C138.03 45.62 136.88 41.11 136.88 41.06C136.833 40.8686 136.731 40.695 136.587 40.5601C136.444 40.4252 136.264 40.3349 136.07 40.3C135.903 40.2706 135.732 40.283 135.572 40.3361C135.411 40.3893 135.267 40.4815 135.15 40.6044C135.034 40.7274 134.951 40.8773 134.907 41.0406C134.863 41.2039 134.861 41.3755 134.9 41.54L137.91 53.57C137.967 53.7905 138.094 53.9861 138.273 54.127C138.452 54.268 138.672 54.3463 138.9 54.35C139.39 54.35 139.78 54.03 139.88 53.57L141.88 45.58L141.91 45.51L141.93 45.58C142.81 49.05 143.93 53.58 143.93 53.58C143.99 53.7962 144.117 53.9876 144.293 54.1261C144.47 54.2647 144.686 54.3431 144.91 54.35C145.14 54.3572 145.366 54.2829 145.547 54.1403C145.728 53.9976 145.853 53.7957 145.9 53.57L148.9 41.54Z" fill="#333545"/>
</svg>
