<svg width="176" height="96" viewBox="0 0 176 96" fill="none" xmlns="http://www.w3.org/2000/svg">
<rect width="176" height="96" rx="16" fill="white"/>
<g clip-path="url(#clip0_1_2577)">
<path d="M112.364 62.1021L120.703 52.8656L112.364 43.6277H121.163L125.293 48.1149L129.271 43.6277H137.763L129.463 52.8274L137.877 62.1021H129.042L124.949 57.5781L120.894 62.1021H112.364Z" fill="#FF6600"/>
<path d="M112.364 39.4864H102.919V43.6277H112.364V49.869H102.919V55.5977H112.364V62.1021H95.9764V33H112.364V39.4864Z" fill="#FF6600"/>
<path d="M89.0635 33V44.91H88.9874C87.457 43.176 85.5448 42.5734 83.3261 42.5734C78.7813 42.5734 75.3578 45.6189 74.1561 49.6453C72.7857 45.2087 69.2513 42.4903 64.0104 42.4903C59.7543 42.4903 56.3935 44.3734 54.6396 47.442V43.6281H45.8422V39.4873H55.4426V33H38V62.1026H45.8422V49.869H53.6587C53.4257 50.7677 53.3013 51.7299 53.3013 52.7451C53.3013 58.8159 58.0061 63.0754 64.0104 63.0754C69.0596 63.0754 72.387 60.7389 74.147 56.4789H67.4265C66.5174 57.7586 65.8278 58.1387 64.0104 58.1387C61.903 58.1387 60.0861 56.3263 60.0861 54.1779H73.7704C74.3639 58.9997 78.1744 63.1581 83.4035 63.1581C85.6591 63.1581 87.7243 62.0644 88.9874 60.2177H89.0635V62.1017H95.9765V33H89.0635ZM60.3043 49.956C60.7404 48.1076 62.1948 46.8994 64.0104 46.8994C66.0091 46.8994 67.3896 48.0703 67.7526 49.956C67.9057 49.956 60.3043 49.956 60.3043 49.956ZM84.8683 57.6711C82.32 57.6711 80.7365 55.3307 80.7365 52.887C80.7365 50.2749 82.1139 47.763 84.8683 47.763C87.7243 47.763 88.8622 50.2749 88.8622 52.887C88.8617 55.3641 87.6561 57.6711 84.8683 57.6711Z" fill="#652C8F"/>
</g>
<defs>
<clipPath id="clip0_1_2577">
<rect width="100" height="30" fill="white" transform="translate(38 33)"/>
</clipPath>
</defs>
</svg>
