<svg width="176" height="96" viewBox="0 0 176 96" fill="none" xmlns="http://www.w3.org/2000/svg">
<rect width="176" height="96" rx="16" fill="white"/>
<g clip-path="url(#clip0_1_2601)">
<path d="M98.8174 45.8557H101.877V56.57H98.8174V55.1771C97.7248 56.7843 96.3044 56.8914 95.4303 56.8914C92.0432 56.8914 89.8579 54.32 89.8579 51.2128C89.8579 47.9986 92.0432 45.5343 95.2118 45.5343C96.0859 45.5343 97.7248 45.6414 98.7082 47.2486V45.8557H98.8174ZM93.1358 51.2128C93.1358 52.9271 94.3377 54.2128 96.1951 54.2128C97.9433 54.2128 99.2545 52.9271 99.2545 51.2128C99.2545 49.4986 98.0526 48.2128 96.1951 48.2128C94.4469 48.2128 93.1358 49.4986 93.1358 51.2128Z" fill="black"/>
<path d="M107.886 48.4282V56.571H104.827V48.4282H103.625V45.8567H104.827V42.2139H107.886V45.8567H109.962V48.4282H107.886Z" fill="black"/>
<path d="M117.173 48.4271C116.408 47.7843 115.753 47.6771 115.425 47.6771C114.66 47.6771 114.223 47.9986 114.223 48.5343C114.223 48.8557 114.332 49.1771 115.206 49.4986L115.971 49.7128C116.845 50.0343 118.156 50.3557 118.703 51.2128C119.031 51.6414 119.249 52.2843 119.249 53.0343C119.249 53.9986 118.921 54.9628 118.047 55.7128C117.173 56.4628 116.08 56.8914 114.769 56.8914C112.475 56.8914 111.273 55.82 110.508 55.07L112.147 53.2486C112.803 53.8914 113.677 54.5343 114.551 54.5343C115.425 54.5343 116.08 54.1057 116.08 53.3557C116.08 52.7128 115.534 52.3914 115.097 52.2843L114.442 52.07C113.677 51.7486 112.803 51.4271 112.147 50.7843C111.601 50.2486 111.273 49.6057 111.273 48.7486C111.273 47.6771 111.819 46.82 112.366 46.2843C113.24 45.6414 114.332 45.5343 115.206 45.5343C115.971 45.5343 117.282 45.6414 118.703 46.7128L117.173 48.4271Z" fill="black"/>
<path d="M123.838 47.2499C124.931 45.7499 126.46 45.5356 127.334 45.5356C130.503 45.5356 132.688 47.9999 132.688 51.2141C132.688 54.4284 130.503 56.8927 127.225 56.8927C126.57 56.8927 124.931 56.7856 123.729 55.1784V56.5713H120.779V38.5713H123.838V47.2499ZM123.51 51.2141C123.51 52.9284 124.712 54.2141 126.57 54.2141C128.318 54.2141 129.629 52.9284 129.629 51.2141C129.629 49.4999 128.427 48.2141 126.57 48.2141C124.712 48.2141 123.51 49.4999 123.51 51.2141Z" fill="black"/>
<path d="M137.714 54.9636L132.47 45.8565H136.075L139.463 51.9636L142.522 45.8565H146.018L137.277 62.2493H133.781L137.714 54.9636Z" fill="black"/>
<path d="M89.0929 47.6767H86.0335H81.4445V50.6767H85.4872C84.8317 52.7125 83.302 54.1053 80.4612 54.1053C77.2926 54.1053 74.9981 51.5339 74.9981 48.4267C74.9981 45.3196 77.1833 42.641 80.3519 42.641C82.1001 42.641 83.8483 43.4982 84.9409 44.891L87.4539 43.2839C85.815 41.0339 83.1927 39.7482 80.3519 39.7482C75.5444 39.7482 71.6109 43.6053 71.6109 48.4267C71.6109 53.2482 75.3258 57.1053 80.3519 57.1053C85.378 57.1053 89.0929 53.2482 89.0929 48.4267C89.2021 48.1053 89.0929 47.891 89.0929 47.6767Z" fill="black"/>
<path d="M57.4065 47.9987H49.7581V50.1416H55.0027C54.2379 53.3558 51.8341 56.0344 48.6655 57.1058L36.1003 44.7844C37.4115 41.0344 41.1264 38.3558 45.3876 38.3558C48.6655 38.3558 51.6156 39.963 53.473 42.4273L55.112 41.0344C52.9267 38.1416 49.4303 36.213 45.3876 36.213C39.706 36.213 34.8985 40.1773 33.6966 45.4273L48.1192 59.5701C53.3638 58.2844 57.4065 53.5701 57.4065 47.9987Z" fill="white"/>
<path d="M33.3686 48.1074C33.3686 51.1074 34.5705 54.0003 36.865 56.2503C39.1595 58.5003 42.2188 59.6789 45.1689 59.6789L33.3686 48.1074Z" fill="white"/>
<path d="M45.3876 33C36.9744 33 30.0909 39.75 30.0909 48C30.0909 56.25 36.9744 63 45.3876 63C53.8008 63 60.6843 56.25 60.6843 48C60.6843 39.75 53.8008 33 45.3876 33ZM36.8651 56.3571C34.5706 54.1071 33.3687 51.1071 33.3687 48.2143L45.2783 59.7857C42.219 59.6786 39.1596 58.6071 36.8651 56.3571ZM48.0099 59.4643L33.6965 45.4286C34.8984 40.1786 39.706 36.2143 45.3876 36.2143C49.4303 36.2143 52.9267 38.1429 55.1119 41.0357L53.473 42.4286C51.6155 39.9643 48.6654 38.3571 45.3876 38.3571C41.1264 38.3571 37.5207 41.0357 36.1003 44.7857L48.6654 57.1071C51.8341 56.0357 54.2378 53.3571 55.0027 50.1429H49.7581V48H57.4064C57.4064 53.5714 53.3637 58.2857 48.0099 59.4643Z" fill="#663399"/>
</g>
<defs>
<clipPath id="clip0_1_2601">
<rect width="116" height="30" fill="white" transform="translate(30 33)"/>
</clipPath>
</defs>
</svg>
