<svg width="176" height="96" viewBox="0 0 176 96" fill="none" xmlns="http://www.w3.org/2000/svg">
<rect width="176" height="96" rx="16" fill="white"/>
<g clip-path="url(#clip0_1_2593)">
<path d="M80.4273 48.4104C80.4273 52.8522 76.9382 56.1252 72.6562 56.1252C68.3742 56.1252 64.885 52.8522 64.885 48.4104C64.885 43.9374 68.3742 40.6957 72.6562 40.6957C76.9382 40.6957 80.4273 43.9374 80.4273 48.4104ZM77.0255 48.4104C77.0255 45.6348 75.0032 43.7357 72.6562 43.7357C70.3091 43.7357 68.2869 45.6348 68.2869 48.4104C68.2869 51.1583 70.3091 53.0852 72.6562 53.0852C75.0032 53.0852 77.0255 51.1548 77.0255 48.4104Z" fill="#EA4335"/>
<path d="M97.192 48.4104C97.192 52.8522 93.7029 56.1252 89.4209 56.1252C85.1389 56.1252 81.6497 52.8522 81.6497 48.4104C81.6497 43.9409 85.1389 40.6957 89.4209 40.6957C93.7029 40.6957 97.192 43.9374 97.192 48.4104ZM93.7902 48.4104C93.7902 45.6348 91.7679 43.7357 89.4209 43.7357C87.0738 43.7357 85.0516 45.6348 85.0516 48.4104C85.0516 51.1583 87.0738 53.0852 89.4209 53.0852C91.7679 53.0852 93.7902 51.1548 93.7902 48.4104Z" fill="#FBBC05"/>
<path d="M113.258 41.1617V55.0122C113.258 60.7096 109.884 63.0365 105.896 63.0365C102.141 63.0365 99.8814 60.5357 99.0292 58.4904L101.991 57.2626C102.518 58.5183 103.811 60 105.892 60C108.445 60 110.028 58.4313 110.028 55.4783V54.3687H109.909C109.147 55.3043 107.68 56.1217 105.829 56.1217C101.956 56.1217 98.4075 52.7617 98.4075 48.4383C98.4075 44.0835 101.956 40.6957 105.829 40.6957C107.677 40.6957 109.144 41.513 109.909 42.4209H110.028V41.1652H113.258V41.1617ZM110.269 48.4383C110.269 45.7217 108.449 43.7357 106.133 43.7357C103.786 43.7357 101.82 45.7217 101.82 48.4383C101.82 51.127 103.786 53.0852 106.133 53.0852C108.449 53.0852 110.269 51.127 110.269 48.4383Z" fill="#4285F4"/>
<path d="M118.585 33.0435V55.6522H115.267V33.0435H118.585Z" fill="#34A853"/>
<path d="M131.514 50.9496L134.155 52.7026C133.303 53.9583 131.249 56.1217 127.7 56.1217C123.3 56.1217 120.013 52.7339 120.013 48.407C120.013 43.8191 123.328 40.6922 127.32 40.6922C131.34 40.6922 133.306 43.8783 133.949 45.6L134.302 46.4765L123.946 50.7478C124.739 52.2957 125.972 53.0852 127.7 53.0852C129.433 53.0852 130.634 52.2365 131.514 50.9496ZM123.387 48.1739L130.309 45.3113C129.929 44.3478 128.783 43.6765 127.435 43.6765C125.706 43.6765 123.3 45.1965 123.387 48.1739Z" fill="#EA4335"/>
<path d="M52.3257 46.4035V43.1304H63.4009C63.5091 43.7009 63.565 44.3757 63.565 45.1061C63.565 47.5617 62.8909 50.5983 60.7185 52.7617C58.6054 54.953 55.9056 56.1217 52.3292 56.1217C45.7001 56.1217 40.1259 50.7444 40.1259 44.1426C40.1259 37.5409 45.7001 32.1635 52.3292 32.1635C55.9964 32.1635 58.6089 33.5965 60.5718 35.4644L58.2527 37.7739C56.8452 36.4591 54.9382 35.4365 52.3257 35.4365C47.4849 35.4365 43.6988 39.3217 43.6988 44.1426C43.6988 48.9635 47.4849 52.8487 52.3257 52.8487C55.4656 52.8487 57.2538 51.593 58.3994 50.4522C59.3284 49.527 59.9396 48.2052 60.1806 46.4L52.3257 46.4035Z" fill="#4285F4"/>
</g>
<defs>
<clipPath id="clip0_1_2593">
<rect width="95" height="32" fill="white" transform="translate(40 32)"/>
</clipPath>
</defs>
</svg>
