<svg width="176" height="96" viewBox="0 0 176 96" fill="none" xmlns="http://www.w3.org/2000/svg">
<rect width="176" height="96" rx="16" fill="white"/>
<g clip-path="url(#clip0_1_2585)">
<path d="M114.59 34.4003H109.935C109.669 34.4003 109.536 34.6672 109.536 34.8006V44.9643H104.881V34.8006C104.881 34.5338 104.615 34.4003 104.482 34.4003H99.8272C99.5612 34.4003 99.4282 34.6672 99.4282 34.8006V60.888C99.4282 61.1549 99.6942 61.2883 99.8272 61.2883H104.482C104.748 61.2883 104.881 61.0215 104.881 60.888V50.4575H109.536V60.888C109.536 61.1549 109.802 61.2883 109.935 61.2883H114.59C114.856 61.2883 114.989 61.0215 114.989 60.888V34.8006C114.989 34.6672 114.856 34.4003 114.59 34.4003ZM75.3552 34.4003H70.7002C70.4342 34.4003 70.3012 34.5338 70.3012 34.8006V53.282C70.3012 54.216 70.0352 54.8832 69.6362 55.417C69.2372 55.9508 68.7052 56.0842 68.0402 56.0842C67.3973 56.0842 66.8432 55.8173 66.4442 55.417C66.0452 54.8832 65.7792 54.216 65.7792 53.282V34.8006C65.7792 34.5338 65.5132 34.4003 65.3802 34.4003H60.7252C60.4592 34.4003 60.3262 34.5338 60.3262 34.8006V53.4154C60.3262 55.8173 60.8582 58.0858 62.3212 59.5759C63.7842 61.0437 65.7792 61.8443 68.0623 61.8443C70.4563 61.8443 72.4735 61.0437 73.8035 59.5759C75.2665 58.108 75.7985 55.973 75.7985 53.4154V34.8006C75.7763 34.6672 75.6433 34.4003 75.3552 34.4003ZM29.7362 34C27.3422 34 25.325 34.8006 23.995 36.2685C22.532 37.7363 22 39.8713 22 42.4289V53.5489C22 55.9508 22.532 58.2192 23.995 59.7093C25.458 61.1771 27.453 61.9778 29.7362 61.9778C32.1302 61.9778 34.1473 61.1771 35.4773 59.7093C36.9403 58.2415 37.4723 56.1064 37.4723 53.5489V47.4107C37.4723 47.1438 37.2063 46.8769 36.9403 46.8769H30.1352C29.8692 46.8769 29.6032 47.1438 29.6032 47.4107V51.9698C29.6032 52.2367 29.8692 52.5036 30.1352 52.5036H31.8863V53.5711C31.8863 54.5052 31.6203 55.328 31.2213 55.8395C30.8223 56.3733 30.2903 56.5067 29.6253 56.5067C28.9825 56.5067 28.4283 56.2399 28.0293 55.8395C27.6303 55.3058 27.3643 54.5052 27.3643 53.5711V42.5846C27.3643 41.6505 27.6303 40.8276 28.0293 40.3161C28.4283 39.7824 28.9603 39.6489 29.6253 39.6489C30.2682 39.6489 30.8223 39.9158 31.2213 40.3161C31.6203 40.8499 31.8863 41.6505 31.8863 42.5846V43.6521C31.8863 43.919 32.1523 44.0524 32.2853 44.0524H36.9403C37.2063 44.0524 37.3393 43.919 37.3393 43.6521V42.5846C37.3393 40.1827 36.8073 37.9142 35.3443 36.4242C34.1473 34.8006 31.9972 34 29.7362 34ZM89.7635 55.2835C89.3645 55.8173 88.8325 55.9507 88.0123 55.9507H85.3523V50.3018H88.0123C88.6773 50.3018 89.2093 50.5687 89.6083 50.969C90.0073 51.5028 90.2733 52.17 90.2733 52.9706C90.3177 54.0826 90.1847 54.7275 89.7635 55.2835ZM85.3523 39.8936H87.7463C88.4113 39.8936 88.9433 40.027 89.3423 40.5608C89.7413 40.9611 89.8743 41.6283 89.8743 42.4512C89.8743 43.274 89.7413 43.919 89.3423 44.4527C88.9433 44.8531 88.4113 45.1199 87.8793 45.1199H85.4853V39.8936H85.3523ZM93.0885 47.5219C93.8865 46.7212 95.3495 44.8531 95.3495 42.4289C95.3495 39.6045 94.2855 37.8697 93.4653 36.9357C92.0023 35.3344 90.0073 34.5338 87.7242 34.5338H80.4313C80.1653 34.5338 80.0323 34.8006 80.0323 34.9341V61.0437C80.0323 61.3106 80.2983 61.444 80.4313 61.444H88.1675C90.5615 61.444 92.8225 60.5099 94.3077 58.6195C95.1057 57.552 96.0588 55.7951 96.0588 53.1263C95.9037 49.9237 93.9087 48.0334 93.0885 47.5219ZM50.6837 44.9643C50.2847 45.498 49.6197 45.7649 48.7995 45.7649H46.5385V39.8936H48.7995C49.5975 39.8936 50.2625 40.1604 50.6837 40.6942C51.2157 41.228 51.3487 41.8951 51.3487 42.8292C51.3487 43.7633 51.2378 44.4305 50.6837 44.9643ZM53.6318 49.7903C54.1638 49.39 54.5628 49.1231 54.9618 48.5893C55.8928 47.5218 57.0898 45.6314 57.0898 42.6958C57.0898 39.8713 56.0258 38.0254 54.9618 36.9357C53.6318 35.3344 51.6368 34.5338 49.3537 34.4003H41.6175C41.3515 34.4003 41.2185 34.6672 41.2185 34.8006V60.888C41.2185 61.1549 41.4845 61.2883 41.6175 61.2883H46.2725C46.5385 61.2883 46.6715 61.0215 46.6715 60.888V51.2359H48.2675L51.2157 61.1326C51.2157 61.2661 51.4817 61.3995 51.6147 61.3995H56.5357C56.6687 61.3995 56.8017 61.2661 56.9347 61.2661C57.0677 61.2661 57.0677 60.9992 57.0677 60.8658L53.6318 49.7903ZM148.594 55.2835C148.195 55.8173 147.663 55.9507 146.843 55.9507H144.183V50.3018H146.843C147.508 50.3018 148.04 50.5687 148.439 50.969C148.838 51.5028 149.104 52.17 149.104 52.9706C149.259 54.0826 149.015 54.7275 148.594 55.2835ZM144.316 39.8936H146.71C147.375 39.8936 147.907 40.027 148.306 40.5608C148.705 40.9611 148.838 41.6283 148.838 42.4512C148.838 43.274 148.705 43.919 148.306 44.4527C147.907 44.8531 147.375 45.1199 146.843 45.1199H144.449V39.8936H144.316ZM152.052 47.5219C152.85 46.7212 154.313 44.8531 154.313 42.4289C154.313 39.6045 153.249 37.8697 152.429 36.9357C150.966 35.3344 148.971 34.5338 146.688 34.5338H139.328C139.062 34.5338 138.929 34.8006 138.929 34.9341V61.0437C138.929 61.3106 139.195 61.444 139.328 61.444H147.109C149.503 61.444 151.764 60.5099 153.249 58.6195C154.047 57.552 155 55.7951 155 53.1263C154.734 49.9237 152.739 48.0334 152.052 47.5219ZM134.185 34.4003H129.53C129.264 34.4003 129.131 34.5338 129.131 34.8006V53.282C129.131 54.216 128.865 54.8832 128.466 55.417C128.067 55.9508 127.535 56.0842 126.87 56.0842C126.228 56.0842 125.674 55.8173 125.274 55.417C124.875 54.8832 124.609 54.216 124.609 53.282V34.8006C124.609 34.5338 124.343 34.4003 124.21 34.4003H119.533C119.267 34.4003 119.134 34.5338 119.134 34.8006V53.4154C119.134 55.8173 119.666 58.0858 121.129 59.5759C122.592 61.0437 124.587 61.8443 126.87 61.8443C129.264 61.8443 131.282 61.0437 132.612 59.5759C134.075 58.108 134.607 55.973 134.607 53.4154V34.8006C134.74 34.6672 134.474 34.4003 134.185 34.4003Z" fill="#F63440"/>
</g>
<defs>
<clipPath id="clip0_1_2585">
<rect width="133" height="28" fill="white" transform="translate(22 34)"/>
</clipPath>
</defs>
</svg>
