<svg width="176" height="96" viewBox="0 0 176 96" fill="none" xmlns="http://www.w3.org/2000/svg">
<rect width="176" height="96" rx="16" fill="white"/>
<g clip-path="url(#clip0_1_2591)">
<path d="M44.129 37.297V46.3233H35.9046V37.297H32V58.8437H35.9046V50.1105H44.129V58.8437H48.0336V37.297H44.129Z" fill="#33475B"/>
<path d="M60.5299 51.8787C60.5299 52.7422 60.1895 53.5704 59.5837 54.181C58.9779 54.7916 58.1563 55.1346 57.2996 55.1346C56.4429 55.1346 55.6213 54.7916 55.0155 54.181C54.4097 53.5704 54.0693 52.7422 54.0693 51.8787V42.6499H50.3656V51.8787C50.3656 53.7305 51.0954 55.5065 52.3946 56.816C53.6937 58.1254 55.4557 58.8611 57.2929 58.8611C59.1301 58.8611 60.8921 58.1254 62.1912 56.816C63.4904 55.5065 64.2202 53.7305 64.2202 51.8787V42.6499H60.5299V51.8787Z" fill="#33475B"/>
<path d="M87.9715 43.6006C87.9715 41.7089 89.2131 41.1092 90.5733 41.1092C91.6695 41.1092 93.1177 41.95 94.0647 42.97L96.4905 40.0891C95.2795 38.4385 92.8231 37.297 90.8124 37.297C86.7949 37.297 83.889 39.6688 83.889 43.6006C83.889 50.8953 92.7351 48.5813 92.7351 52.6635C92.7351 53.9227 91.5222 55.0353 90.1333 55.0353C87.9428 55.0353 87.233 53.9555 86.2268 52.8139L83.535 55.635C85.2568 57.7658 87.3804 58.8476 89.9248 58.8476C93.7414 58.8476 96.8119 56.4468 96.8119 52.6944C96.8119 44.5956 87.9658 47.112 87.9658 43.6006" fill="#33475B"/>
<path d="M142.697 55.4017C140.508 55.4017 139.887 54.4472 139.887 52.9856V46.5161H143.288V43.238H139.887V38.9129L136.131 40.6117V53.7897C136.131 57.1603 138.439 58.8591 141.603 58.8591C142.099 58.8682 142.595 58.8282 143.084 58.7396L144 55.34C143.587 55.3689 143.112 55.3979 142.697 55.3979" fill="#33475B"/>
<path d="M74.6275 42.7579C72.7928 42.7579 71.513 43.294 70.2752 44.5184V37.4262H66.5657V50.5714C66.5657 55.4924 70.0954 58.863 74.0612 58.863C78.4613 58.863 82.3315 55.4326 82.3315 50.8124C82.3315 46.2501 78.7693 42.7598 74.6275 42.7598V42.7579ZM74.6045 55.1009C73.7721 55.1009 72.9584 54.8521 72.2663 54.386C71.5741 53.9198 71.0347 53.2573 70.7161 52.4821C70.3976 51.7069 70.3142 50.854 70.4766 50.0311C70.639 49.2081 71.0399 48.4522 71.6285 47.859C72.2171 47.2657 72.967 46.8616 73.7834 46.6979C74.5999 46.5343 75.4461 46.6183 76.2152 46.9394C76.9842 47.2604 77.6416 47.8042 78.104 48.5018C78.5665 49.1994 78.8133 50.0196 78.8133 50.8587C78.8133 51.9838 78.3699 53.0628 77.5806 53.8584C76.7913 54.654 75.7208 55.1009 74.6045 55.1009Z" fill="#33475B"/>
<path d="M114.906 50.6157C114.906 45.9878 111.043 42.5651 106.635 42.5651C102.669 42.5651 99.1398 45.9358 99.1398 50.8568V64.0096H102.849V56.9077C104.085 58.1303 105.367 58.6683 107.2 58.6683C111.341 58.6683 114.904 55.18 114.904 50.6157H114.906ZM111.393 50.5694C111.393 51.4085 111.146 52.2287 110.684 52.9263C110.221 53.6239 109.564 54.1677 108.795 54.4888C108.026 54.8098 107.18 54.8939 106.363 54.7302C105.547 54.5665 104.797 54.1624 104.208 53.5692C103.62 52.9759 103.219 52.22 103.056 51.3971C102.894 50.5741 102.977 49.7212 103.296 48.946C103.614 48.1708 104.154 47.5083 104.846 47.0422C105.538 46.576 106.352 46.3272 107.184 46.3272C108.301 46.3272 109.371 46.7742 110.16 47.5697C110.95 48.3653 111.393 49.4443 111.393 50.5694Z" fill="#33475B"/>
<path d="M126.889 42.3838V38.6275C127.382 38.3956 127.799 38.0274 128.092 37.5659C128.385 37.1043 128.542 36.5684 128.544 36.0205V35.9337C128.544 35.1666 128.242 34.4309 127.704 33.8884C127.165 33.346 126.436 33.0413 125.675 33.0413H125.588C124.827 33.0413 124.097 33.346 123.559 33.8884C123.021 34.4309 122.719 35.1666 122.719 35.9337V36.0205C122.721 36.5684 122.878 37.1043 123.171 37.5659C123.464 38.0274 123.881 38.3956 124.374 38.6275V42.3838C122.958 42.6021 121.625 43.1935 120.509 44.0981L110.289 36.0745C110.362 35.8099 110.4 35.5371 110.404 35.2627C110.405 34.618 110.217 33.9876 109.862 33.451C109.508 32.9144 109.004 32.4958 108.413 32.2482C107.823 32.0005 107.173 31.9349 106.545 32.0597C105.918 32.1845 105.341 32.494 104.888 32.9491C104.435 33.4043 104.127 33.9846 104.001 34.6166C103.875 35.2487 103.939 35.9041 104.182 36.5C104.426 37.0958 104.84 37.6054 105.372 37.9642C105.903 38.323 106.528 38.5149 107.167 38.5157C107.727 38.5132 108.275 38.3629 108.759 38.0799L118.824 45.9724C117.919 47.3491 117.448 48.9686 117.47 50.6196C117.492 52.2706 118.007 53.8766 118.948 55.2282L115.887 58.3135C115.64 58.2338 115.382 58.1915 115.122 58.1881C114.597 58.1885 114.084 58.3457 113.647 58.64C113.211 58.9342 112.871 59.3523 112.67 59.8412C112.469 60.3302 112.417 60.8682 112.52 61.3872C112.622 61.9062 112.875 62.3829 113.246 62.7571C113.617 63.1313 114.09 63.3862 114.605 63.4895C115.12 63.5929 115.654 63.54 116.139 63.3377C116.624 63.1354 117.039 62.7926 117.331 62.3528C117.623 61.9129 117.779 61.3957 117.779 60.8665C117.776 60.6046 117.734 60.3447 117.655 60.0952L120.683 57.0427C121.671 57.8087 122.819 58.3366 124.04 58.5862C125.261 58.8358 126.523 58.8004 127.729 58.4826C128.934 58.1648 130.052 57.5732 130.995 56.753C131.939 55.9327 132.684 54.9057 133.173 53.7506C133.662 52.5954 133.882 51.3427 133.817 50.0885C133.751 48.8343 133.402 47.6118 132.795 46.5147C132.189 45.4175 131.341 44.4749 130.318 43.7589C129.294 43.0428 128.121 42.5725 126.889 42.3838ZM125.634 54.7365C124.806 54.7357 123.996 54.4874 123.308 54.023C122.619 53.5586 122.083 52.8989 121.767 52.1273C121.45 51.3557 121.367 50.5069 121.529 49.688C121.691 48.8691 122.09 48.117 122.676 47.5268C123.262 46.9365 124.009 46.5345 124.821 46.3717C125.634 46.2088 126.476 46.2924 127.241 46.6118C128.006 46.9313 128.661 47.4722 129.121 48.1664C129.582 48.8605 129.827 49.6766 129.828 50.5116C129.828 51.6316 129.386 52.7057 128.601 53.4977C127.815 54.2896 126.749 54.7345 125.638 54.7345" fill="#FF7A59"/>
</g>
<defs>
<clipPath id="clip0_1_2591">
<rect width="112" height="32" fill="white" transform="translate(32 32)"/>
</clipPath>
</defs>
</svg>
