<svg width="176" height="96" viewBox="0 0 176 96" fill="none" xmlns="http://www.w3.org/2000/svg">
<rect width="176" height="96" rx="16" fill="white"/>
<g clip-path="url(#clip0_1_2575)">
<path d="M70.0636 49.9752L69.3364 52.031H69.2758C69.1546 51.5674 68.9324 50.862 68.5689 50.0155L64.6705 40.2403H60.853V55.8202H63.3778V46.2062C63.3778 45.6016 63.3778 44.9163 63.3576 44.0698C63.3374 43.6465 63.297 43.324 63.2768 43.0822H63.3374C63.4586 43.6868 63.6 44.1302 63.701 44.4124L68.3871 55.7798H70.1646L74.8102 44.3116C74.9112 44.0496 75.0122 43.5256 75.1132 43.0822H75.1738C75.1132 44.231 75.0728 45.2589 75.0526 45.8837V55.7597H77.7391V40.2H74.0629L70.0636 49.9752ZM80.2841 44.5938H82.9099V55.7597H80.2841V44.5938ZM81.6172 39.8775C81.1728 39.8775 80.8093 40.0388 80.5063 40.3209C80.2033 40.6031 80.0417 40.9659 80.0417 41.4093C80.0417 41.8326 80.2033 42.1953 80.5063 42.4775C80.8093 42.7597 81.1728 42.9008 81.6172 42.9008C82.0616 42.9008 82.4453 42.7395 82.7281 42.4775C83.0311 42.1953 83.1927 41.8326 83.1927 41.4093C83.1927 40.986 83.0311 40.6233 82.7281 40.3209C82.4655 40.0388 82.0818 39.8775 81.6172 39.8775ZM92.2215 44.493C91.7367 44.3922 91.2318 44.3318 90.747 44.3318C89.5553 44.3318 88.4645 44.5938 87.5556 45.1178C86.6467 45.6419 85.9195 46.3674 85.4549 47.2744C84.9702 48.2016 84.7278 49.2698 84.7278 50.4992C84.7278 51.5674 84.9702 52.5147 85.4347 53.3814C85.8993 54.2279 86.5457 54.9132 87.4142 55.3767C88.2424 55.8403 89.2119 56.0822 90.3026 56.0822C91.5549 56.0822 92.6255 55.8202 93.4738 55.3364L93.494 55.3163V52.8977L93.393 52.9783C93.0093 53.2605 92.5649 53.5023 92.1205 53.6434C91.6559 53.8047 91.2318 53.8853 90.8682 53.8853C89.8179 53.8853 88.9897 53.5829 88.404 52.9178C87.798 52.2729 87.495 51.386 87.495 50.2775C87.495 49.1287 87.798 48.2217 88.4242 47.5566C89.0503 46.8915 89.8785 46.5488 90.8884 46.5488C91.7367 46.5488 92.6053 46.831 93.393 47.3953L93.494 47.476V44.9163L93.4738 44.8961C93.1304 44.755 92.7467 44.5938 92.2215 44.493ZM100.887 44.4124C100.24 44.4124 99.6344 44.614 99.1093 45.0372C98.6649 45.4 98.3619 45.924 98.0993 46.5488H98.0791V44.5938H95.4533V55.7597H98.0791V50.0558C98.0791 49.0884 98.2811 48.2822 98.7255 47.6977C99.1698 47.093 99.7354 46.7907 100.422 46.7907C100.665 46.7907 100.907 46.8512 101.21 46.8915C101.493 46.9721 101.695 47.0527 101.836 47.1535L101.937 47.2341V44.614L101.876 44.5938C101.695 44.4729 101.331 44.4124 100.887 44.4124ZM108.037 44.3519C106.199 44.3519 104.724 44.8961 103.694 45.9643C102.644 47.0326 102.139 48.5039 102.139 50.3581C102.139 52.0915 102.664 53.5023 103.674 54.5302C104.684 55.538 106.058 56.062 107.774 56.062C109.572 56.062 111.006 55.5178 112.036 54.4295C113.087 53.3411 113.592 51.8899 113.592 50.0961C113.592 48.3225 113.107 46.9116 112.117 45.8837C111.168 44.8558 109.774 44.3519 108.037 44.3519ZM110.138 52.938C109.653 53.5628 108.885 53.8651 107.936 53.8651C106.987 53.8651 106.219 53.5628 105.674 52.8977C105.128 52.2729 104.866 51.3659 104.866 50.2171C104.866 49.0279 105.149 48.1209 105.674 47.476C106.219 46.831 106.967 46.5085 107.916 46.5085C108.845 46.5085 109.572 46.8109 110.097 47.4357C110.622 48.0605 110.905 48.9674 110.905 50.1566C110.865 51.3659 110.643 52.3132 110.138 52.938ZM119.449 49.2295C118.621 48.8868 118.096 48.6248 117.854 48.4031C117.652 48.2016 117.551 47.9194 117.551 47.5566C117.551 47.2543 117.672 46.9519 117.975 46.7504C118.278 46.5488 118.621 46.4481 119.126 46.4481C119.571 46.4481 120.035 46.5287 120.479 46.6496C120.924 46.7705 121.328 46.9519 121.651 47.1938L121.752 47.2744V44.8155L121.691 44.7953C121.388 44.6744 120.984 44.5535 120.5 44.4527C120.015 44.3721 119.571 44.3318 119.207 44.3318C117.955 44.3318 116.924 44.6341 116.117 45.2992C115.309 45.924 114.925 46.7705 114.925 47.7581C114.925 48.2822 115.006 48.7457 115.187 49.1287C115.369 49.5116 115.632 49.8744 115.995 50.1767C116.359 50.4589 116.884 50.7814 117.611 51.0837C118.217 51.3457 118.682 51.5473 118.965 51.7085C119.247 51.8698 119.429 52.0512 119.571 52.1922C119.671 52.3535 119.732 52.555 119.732 52.8171C119.732 53.5628 119.167 53.9256 118.015 53.9256C117.571 53.9256 117.106 53.845 116.561 53.6636C116.016 53.4822 115.511 53.2202 115.086 52.9178L114.985 52.8372V55.3969L115.046 55.4171C115.43 55.5985 115.894 55.7194 116.46 55.8605C117.025 55.9612 117.53 56.0419 117.975 56.0419C119.328 56.0419 120.439 55.7395 121.227 55.0744C122.035 54.4295 122.459 53.6031 122.459 52.5349C122.459 51.7891 122.257 51.124 121.813 50.6202C121.227 50.1364 120.5 49.6326 119.449 49.2295ZM129.387 44.3519C127.549 44.3519 126.074 44.8961 125.044 45.9643C124.014 47.0326 123.489 48.5039 123.489 50.3581C123.489 52.0915 124.014 53.5023 125.024 54.5302C126.034 55.538 127.408 56.062 129.124 56.062C130.922 56.062 132.356 55.5178 133.386 54.4295C134.437 53.3411 134.942 51.8899 134.942 50.0961C134.942 48.3225 134.457 46.9116 133.467 45.8837C132.518 44.8558 131.124 44.3519 129.387 44.3519ZM131.468 52.938C130.983 53.5628 130.215 53.8651 129.266 53.8651C128.296 53.8651 127.549 53.5628 127.004 52.8977C126.458 52.2729 126.196 51.3659 126.196 50.2171C126.196 49.0279 126.478 48.1209 127.004 47.476C127.549 46.831 128.296 46.5085 129.246 46.5085C130.155 46.5085 130.902 46.8109 131.427 47.4357C131.952 48.0605 132.235 48.9674 132.235 50.1566C132.235 51.3659 131.972 52.3132 131.468 52.938ZM148.98 46.7504V44.5938H146.334V41.2884L146.253 41.3085L143.748 42.0543L143.688 42.0744V44.5938H139.729V43.1829C139.729 42.538 139.89 42.0341 140.173 41.7116C140.456 41.3891 140.88 41.2279 141.405 41.2279C141.769 41.2279 142.153 41.3085 142.577 41.4899L142.678 41.5504V39.2729L142.617 39.2527C142.254 39.1318 141.769 39.0512 141.143 39.0512C140.355 39.0512 139.668 39.2326 139.042 39.5349C138.416 39.8775 137.951 40.3411 137.608 40.9659C137.265 41.5705 137.083 42.2558 137.083 43.0419V44.5938H135.245V46.7302H137.083V55.7597H139.729V46.7504H143.688V52.4946C143.688 54.8527 144.799 56.0419 147.021 56.0419C147.384 56.0419 147.768 55.9814 148.131 55.9209C148.515 55.8403 148.798 55.7395 148.96 55.6589L148.98 55.6388V53.4822L148.879 53.5628C148.717 53.6636 148.576 53.7442 148.333 53.8047C148.131 53.8651 147.95 53.8853 147.808 53.8853C147.283 53.8853 146.92 53.7643 146.657 53.462C146.415 53.1798 146.293 52.7163 146.293 52.031V46.7504H148.98Z" fill="#737373"/>
<path d="M27 35H39.3818V47.355H27V35Z" fill="#F25022"/>
<path d="M40.6744 35H53.0562V47.355H40.6744V35Z" fill="#7FBA00"/>
<path d="M27 48.645H39.3818V61H27V48.645Z" fill="#00A4EF"/>
<path d="M40.6744 48.645H53.0562V61H40.6744V48.645Z" fill="#FFB900"/>
</g>
<defs>
<clipPath id="clip0_1_2575">
<rect width="122" height="26" fill="white" transform="translate(27 35)"/>
</clipPath>
</defs>
</svg>
