<svg width="176" height="96" viewBox="0 0 176 96" fill="none" xmlns="http://www.w3.org/2000/svg">
<rect width="176" height="96" rx="16" fill="white"/>
<g clip-path="url(#clip0_1_2589)">
<path fill-rule="evenodd" clip-rule="evenodd" d="M125.376 46.8409L119.139 57.6752L113.817 57.6965L125.376 37.3039L136.892 57.6965H131.486L125.376 46.8398V46.8409ZM108.581 52.98H114.541L111.774 57.6965H104.006L104.027 51.9536V37.4293H108.603L108.582 52.98H108.581ZM92.2352 37.4303C97.9182 37.4516 102.516 41.9778 102.495 47.573C102.474 53.1479 97.876 57.6752 92.192 57.6752C86.5301 57.654 81.9326 53.1277 81.9326 47.5315C81.9537 41.9566 86.5512 37.4303 92.2352 37.4303ZM92.2141 52.9598C95.2574 52.9598 97.7043 50.549 97.7043 47.573C97.7264 44.598 95.2574 42.1659 92.2352 42.1659C89.212 42.1446 86.743 44.5767 86.743 47.5528C86.7219 50.5278 89.1909 52.9598 92.2131 52.9598H92.2141ZM73.4614 45.9633C73.3981 45.1239 73.1842 44.0136 72.8649 42.9458C72.2079 40.7401 71.0657 38.7125 69.5235 37.0138C68.7142 36.1341 67.7995 35.316 66.4359 34.3523C65.3965 33.835 64.3745 33.2829 63.3716 32.6969C62.7119 32.3197 61.9237 31.8575 60.8815 31.5228C59.6458 31.2287 58.3827 31.0674 57.1133 31.0415C55.8804 30.999 54.6443 31.1053 53.4525 31.3348C52.1964 31.5441 51.1532 31.8788 49.7696 32.2145C46.6399 33.5766 44.2142 35.6305 42.1277 38.3558C34.8483 48.6036 41.4259 62.9601 53.58 64.6569C55.5811 64.93 57.5822 64.8248 59.4758 64.3849L60.8173 64.029C60.8594 64.0077 60.9237 63.9865 60.9658 63.9865L62.4991 63.4C62.5834 63.3575 62.6477 63.3362 62.733 63.2948L63.3716 63.0015C64.5968 62.3918 65.747 61.6394 66.7984 60.7596C65.8413 61.6365 64.8004 62.4156 63.6909 63.0855L63.7541 63.128C63.968 63.0642 64.1587 63.0015 64.3716 62.9601C64.3716 62.9601 64.3716 63.2948 64.3295 63.2321C63.9891 63.4839 64.5212 63.2533 65.202 62.8963C65.8838 62.5404 66.5434 62.0995 67.1388 61.5969C68.0124 60.8638 68.7784 60.0669 69.8638 58.7685C70.9703 56.8188 72.3549 55.121 72.9935 52.8366C73.2064 52.2288 73.3971 51.517 73.5257 50.7828C73.6521 50.0496 73.7385 49.2953 73.7385 48.5196C73.7174 47.744 73.6321 46.9471 73.4614 45.9633ZM57.7097 63.1906C61.4348 62.6031 64.5634 60.5291 67.1177 57.6996C67.8206 56.6722 68.3738 55.7287 69.0545 54.7023C69.906 52.606 69.8427 50.7413 70.1188 49.4217C70.4603 47.0311 69.651 45.1037 68.9702 43.0499C67.927 40.6603 66.5434 38.8796 64.1166 37.4962C57.9858 33.6818 49.6421 34.7496 45.662 40.451C45.641 40.451 45.5335 40.5976 45.3206 40.8909C45.5978 39.7179 46.3006 39.0262 47.0024 38.3547C49.0889 36.6366 51.5157 35.2735 54.2829 34.6041C57.4126 34.2683 60.5191 34.6041 63.3073 35.9662C67.4802 38.3547 70.2474 42.1075 70.9492 46.5487V50.6574C70.0767 57.3851 64.3295 62.499 57.7097 63.1906ZM73.0146 47.8906C72.8649 38.0413 63.1377 31.3975 53.6654 32.7394C50.8982 33.43 47.8749 34.8134 45.7253 36.7418C44.682 37.4325 44.1931 38.7117 43.1499 39.7381C38.977 45.8793 39.702 53.7386 44.8949 58.5178C45.561 59.1818 46.2723 59.7981 47.0235 60.3623C42.682 57.7411 40.7231 53.779 40.0423 48.9606C40.0423 47.2415 40.3827 45.5436 40.7441 43.8255C43.172 36.3009 50.8128 30.8311 59.1365 32.2145C60.5201 32.5503 61.9037 32.9062 63.3094 33.242C65.0544 33.9326 66.7784 34.96 68.162 36.3232C69.5456 37.6843 70.5888 39.4034 71.632 41.1002C72.3338 42.4634 72.6753 44.1815 73.0156 45.5436C73.0789 46.3192 73.0789 47.1161 73.0156 47.8917L73.0146 47.8906Z" fill="black"/>
<path fill-rule="evenodd" clip-rule="evenodd" d="M64.3725 48.0382C64.3725 52.2723 60.8393 55.7095 56.4756 55.7095C52.1131 55.7095 48.5787 52.2723 48.5787 48.0382C48.5787 43.8052 52.112 40.3681 56.4756 40.3681C60.8393 40.3681 64.3725 43.8052 64.3725 48.0393V48.0382Z" fill="white"/>
<path fill-rule="evenodd" clip-rule="evenodd" d="M64.4157 46.7388C64.3093 46.1523 64.1386 45.6912 63.9689 45.042C63.2871 43.6161 62.2871 42.5058 60.9667 41.5623C56.0288 38.2728 49.2384 41.4369 48.5155 47.0544C48.2394 49.2761 49.0266 51.4138 50.4312 53.049C50.0055 52.6081 49.5376 52.148 49.2183 51.6231L49.1762 51.6656C49.2183 51.791 49.389 51.8749 49.4312 52.0003C49.4312 52.0003 49.2605 52.0003 49.3037 51.9791C49.1762 51.8335 49.2826 52.0641 49.4733 52.3775C49.6441 52.692 49.8569 52.9863 50.1119 53.2583C50.4744 53.6567 50.8569 54.0127 51.4955 54.4951C52.4334 54.9764 53.2627 55.6054 54.3481 55.8986C54.6463 55.9836 54.9866 56.0665 55.3281 56.1292C55.6895 56.1929 56.0299 56.2142 56.4134 56.2142C56.7749 56.2142 57.1584 56.1717 57.6263 56.0867C58.1088 56.0294 58.5857 55.9316 59.0521 55.7945C60.0938 55.4783 61.0534 54.9341 61.8624 54.2007C62.2671 53.8246 62.8424 53.3422 63.2882 52.7132C63.6507 52.0014 63.6928 51.6444 63.8635 51.3299C64.0332 51.0154 64.2461 50.6594 64.3957 50.1771C64.5177 49.6048 64.5889 49.0227 64.6086 48.4377C64.5875 47.8512 64.5453 47.2849 64.4168 46.7399L64.4157 46.7388ZM59.3492 42.8416C60.0732 43.2602 60.1796 43.3229 59.796 43.0509C60.3503 43.1762 60.6907 43.4907 61.031 43.8052C61.8614 44.7487 62.5421 45.8591 62.8825 47.1372C63.0743 48.5833 62.9246 50.0294 62.3082 51.3086C61.2017 53.2572 59.4346 54.5567 57.327 54.9126C57.0931 54.9126 56.8381 54.9126 56.6031 54.9339C57.1995 54.8287 57.5831 54.4515 58.6685 54.0531C59.8382 53.6344 61.1585 51.6858 61.7982 50.5532C63.6707 47.4719 61.4567 44.6223 59.3492 42.8416ZM55.3481 54.9541C52.113 54.6194 49.6219 51.9578 49.2816 48.8766C49.5787 50.5957 50.6009 51.9153 51.9845 53.0894C52.4745 53.4039 53.1973 53.8437 53.6873 54.1582C54.5177 54.4727 55.0067 54.8085 55.816 54.9551H55.3481V54.9541ZM64.0532 49.3589C63.9057 50.0092 63.7561 50.6371 63.6064 51.2874C63.2871 52.0842 62.8193 52.9013 62.1807 53.5505C61.5421 54.2007 60.7328 54.7033 59.9246 55.1857C59.286 55.5204 58.4767 55.6882 57.817 55.8551C57.4335 55.8976 56.9867 55.7297 56.6031 55.7095C61.3292 55.5831 64.5643 51.162 63.8625 46.7813C63.5211 45.5031 62.8403 44.3917 62.01 43.2814C61.6696 42.7991 61.0089 42.5058 60.52 42.0234C57.561 40.1587 53.6452 40.5359 51.4102 42.9882C51.0968 43.3104 50.8049 43.6533 50.5366 44.0146C51.7295 42.254 53.6452 41.0183 55.9435 40.6613C56.7527 40.6401 57.5831 40.7877 58.3914 40.9344C61.9678 42.0234 64.6286 45.5031 64.0532 49.36V49.3589Z" fill="#D7DF23"/>
</g>
<defs>
<clipPath id="clip0_1_2589">
<rect width="98" height="34" fill="white" transform="translate(39 31)"/>
</clipPath>
</defs>
</svg>
