<svg width="176" height="96" viewBox="0 0 176 96" fill="none" xmlns="http://www.w3.org/2000/svg">
<rect width="176" height="96" rx="16" fill="white"/>
<path d="M115.064 62.64C123.042 62.64 129.534 56.0432 129.534 47.936C129.534 39.824 123.042 33.232 115.064 33.232C107.084 33.232 100.594 39.824 100.594 47.936C100.594 56.0432 107.084 62.64 115.064 62.64ZM115.064 42.6928C117.907 42.6928 120.223 45.0448 120.223 47.9344C120.223 50.824 117.906 53.1728 115.062 53.1728C112.217 53.1728 109.905 50.824 109.905 47.9328C109.905 45.04 112.219 42.6896 115.062 42.6896L115.064 42.6928ZM60.4702 62.64C68.4486 62.64 74.9404 56.0432 74.9404 47.936C74.9404 39.824 68.4486 33.232 60.4702 33.232C52.4934 33.232 46 39.824 46 47.936C46 56.0432 52.4934 62.64 60.4702 62.64ZM60.4702 42.6928C63.3151 42.6928 65.6291 45.0448 65.6291 47.9344C65.6291 50.824 63.3151 53.1728 60.4702 53.1728C57.6269 53.1728 55.3145 50.824 55.3145 47.9328C55.3145 45.04 57.6285 42.6896 60.4702 42.6896V42.6928ZM87.7591 42.3616L83.3166 33.424H72.9149L82.6303 52.976V62.1808H92.8894V52.976L102.605 33.424H92.1984L87.7607 42.3616H87.7591Z" fill="#EE2E24"/>
</svg>
