<svg width="176" height="96" viewBox="0 0 176 96" fill="none" xmlns="http://www.w3.org/2000/svg">
<rect width="176" height="96" rx="16" fill="white"/>
<g clip-path="url(#clip0_1_2583)">
<path fill-rule="evenodd" clip-rule="evenodd" d="M51.5359 44.0549C50.0249 44.0549 48.7298 44.6029 47.6506 45.4795V44.2741H43.9811V58.4106H47.7585V49.4246C48.2981 48.6575 49.5932 47.6712 51.2121 47.6712C51.7517 47.6712 52.2913 47.7808 52.723 47.8904V44.2741C52.2913 44.1645 51.8596 44.0549 51.5359 44.0549Z" fill="#293E40"/>
<path fill-rule="evenodd" clip-rule="evenodd" d="M19.0506 54.0272C20.0219 54.9039 21.5328 55.4518 22.8279 55.4518C23.7993 55.4518 24.6627 54.9039 24.6627 54.2464C24.6627 52.0547 17.8634 52.8218 17.8634 48.3288C17.8634 45.5891 20.4536 43.9454 23.1517 43.9454C24.9864 43.9454 26.9291 44.6029 27.9004 45.37L26.1736 48.1096C25.4181 47.6713 24.5547 47.1233 23.4755 47.1233C22.3962 47.1233 21.6408 47.5617 21.6408 48.3288C21.6408 50.1917 28.44 49.4246 28.44 54.3559C28.44 57.0956 25.8498 58.7393 22.9359 58.7393C20.9932 58.7393 18.9427 58.0818 17.3238 56.8764L19.0506 54.0272Z" fill="#293E40"/>
<path fill-rule="evenodd" clip-rule="evenodd" d="M42.3623 51.178C42.3623 47.2329 39.6641 43.9454 35.7789 43.9454C31.6777 43.9454 28.9796 47.4521 28.9796 51.2876C28.9796 55.7805 32.1094 58.6298 36.2106 58.6298C38.369 58.6298 40.5275 57.7531 41.9306 56.1093L39.7721 53.9176C39.1245 54.6847 37.8294 55.5614 36.3185 55.5614C34.3758 55.5614 32.757 54.1368 32.5411 52.1642H42.1464C42.3623 51.9451 42.3623 51.6163 42.3623 51.178ZM32.8649 49.5342C33.0807 48.2192 34.3758 47.0138 35.8868 47.0138C37.3977 47.0138 38.477 48.2192 38.6928 49.5342H32.8649Z" fill="#293E40"/>
<path fill-rule="evenodd" clip-rule="evenodd" d="M61.4649 52.9313L65.2422 44.2741H69.1275L62.76 58.4106H60.1698L53.8022 44.2741H57.5796L61.4649 52.9313Z" fill="#293E40"/>
<path fill-rule="evenodd" clip-rule="evenodd" d="M72.2573 37.5894C73.6604 37.5894 74.7396 38.6853 74.7396 40.0003C74.7396 41.4249 73.6604 42.4112 72.2573 42.4112C70.8543 42.4112 69.883 41.3153 69.883 40.0003C69.883 38.5757 70.8543 37.5894 72.2573 37.5894Z" fill="#293E40"/>
<path d="M74.2 44.2741H70.4227V58.4106H74.2V44.2741Z" fill="#293E40"/>
<path fill-rule="evenodd" clip-rule="evenodd" d="M89.5252 55.4518C87.9064 57.6435 85.8558 58.6298 83.2656 58.6298C78.9487 58.6298 75.8188 55.3422 75.8188 51.2876C75.8188 47.1233 79.0566 43.9454 83.2656 43.9454C85.7479 43.9454 87.7985 45.1508 89.0936 46.7946L86.6113 49.0959C85.8558 48.1096 84.7766 47.4521 83.4815 47.4521C81.323 47.4521 79.7041 49.2054 79.7041 51.2876C79.7041 53.4793 81.2151 55.123 83.4815 55.123C84.9924 55.123 86.1796 54.2464 86.8271 53.2601L89.5252 55.4518Z" fill="#293E40"/>
<path fill-rule="evenodd" clip-rule="evenodd" d="M103.016 56.1093C101.613 57.7531 99.4543 58.6298 97.2958 58.6298C93.1947 58.6298 90.0649 55.7805 90.0649 51.2876C90.0649 47.3425 92.6551 43.9454 96.8641 43.9454C100.641 43.9454 103.448 47.2329 103.448 51.178C103.448 51.6163 103.448 51.9451 103.34 52.2738H93.6264C93.8422 54.2464 95.4611 55.671 97.4038 55.671C98.9147 55.671 100.21 54.7943 100.857 54.0272L103.016 56.1093ZM99.5622 49.5342C99.4543 48.3288 98.3751 47.0138 96.7562 47.0138C95.2453 47.0138 93.9502 48.2192 93.7343 49.5342H99.5622Z" fill="#293E40"/>
<path fill-rule="evenodd" clip-rule="evenodd" d="M104.851 58.4106V44.2741H108.412V45.4795C109.491 44.6029 110.786 44.0549 112.297 44.0549C114.24 44.0549 115.967 44.9316 117.154 46.3562C118.017 47.4521 118.665 48.8767 118.665 51.2875V58.5201H114.888V50.9588C114.888 49.5342 114.564 48.7671 114.024 48.3287C113.485 47.7808 112.837 47.4521 111.866 47.4521C110.355 47.4521 109.06 48.4383 108.412 49.2054V58.4106C108.52 58.4106 104.851 58.4106 104.851 58.4106Z" fill="#293E40"/>
<path fill-rule="evenodd" clip-rule="evenodd" d="M128.27 43.9454C123.737 43.9454 120.176 47.5617 120.176 52.1642C120.176 54.5751 121.147 56.7668 122.658 58.301C123.198 58.8489 124.169 58.8489 124.817 58.4106C125.68 57.6435 126.975 57.2051 128.27 57.2051C129.673 57.2051 130.752 57.6435 131.724 58.4106C132.371 58.9585 133.235 58.8489 133.882 58.1914C135.393 56.6572 136.365 54.5751 136.365 52.1642C136.257 47.6713 132.695 43.9454 128.27 43.9454ZM128.162 56.4381C125.68 56.4381 124.061 54.5751 124.061 52.2738C124.061 49.9725 125.68 48.1096 128.162 48.1096C130.645 48.1096 132.263 49.9725 132.263 52.2738C132.263 54.5751 130.645 56.4381 128.162 56.4381Z" fill="#81B5A1"/>
<path fill-rule="evenodd" clip-rule="evenodd" d="M143.703 58.4106H140.897L135.393 44.2741H139.063L142.085 52.3834L145.106 44.2741H148.236L151.15 52.3834L154.172 44.2741H157.949L152.445 58.4106H149.639L146.617 50.4109L143.703 58.4106Z" fill="#293E40"/>
<path d="M157.949 56.7668H157.626V57.3147H157.41V55.671H158.057C158.381 55.671 158.597 55.8901 158.597 56.2189C158.597 56.4381 158.381 56.6572 158.273 56.7668L158.705 57.4243H158.381L157.949 56.7668ZM157.626 56.5476H158.057C158.273 56.5476 158.273 56.4381 158.273 56.3285C158.273 56.1093 158.165 56.1093 158.057 56.1093H157.626V56.5476Z" fill="#293E40"/>
<path d="M157.949 55.123C158.813 55.123 159.46 55.7805 159.46 56.6572C159.46 57.5339 158.813 58.1914 157.949 58.1914C157.086 58.1914 156.439 57.5339 156.439 56.6572C156.439 55.7805 157.194 55.123 157.949 55.123ZM157.949 54.7943C156.978 54.7943 156.223 55.6709 156.223 56.5476C156.223 57.5339 157.086 58.301 157.949 58.301C158.921 58.301 159.676 57.4243 159.676 56.5476C159.676 55.6709 158.813 54.7943 157.949 54.7943Z" fill="#293E40"/>
</g>
<defs>
<clipPath id="clip0_1_2583">
<rect width="143" height="22" fill="white" transform="translate(17 37)"/>
</clipPath>
</defs>
</svg>
