<svg width="176" height="96" viewBox="0 0 176 96" fill="none" xmlns="http://www.w3.org/2000/svg">
<rect width="176" height="96" rx="16" fill="white"/>
<g clip-path="url(#clip0_1_2579)">
<path fill-rule="evenodd" clip-rule="evenodd" d="M56.1058 37.5745H39.4568V45.9339H47.6489C47.9408 45.9339 48.1775 46.171 48.1775 46.4632V54.5536H56.6344V38.1048C56.6345 38.0352 56.6209 37.9663 56.5944 37.902C56.5679 37.8376 56.529 37.7792 56.4799 37.7299C56.4308 37.6807 56.3725 37.6416 56.3083 37.6149C56.2441 37.5882 56.1753 37.5745 56.1058 37.5745Z" fill="#8E75FF"/>
<path opacity="0.405" fill-rule="evenodd" clip-rule="evenodd" d="M39.4559 37.5745V45.9339H31.6455C31.5931 45.9338 31.5418 45.9181 31.4983 45.8888C31.4547 45.8594 31.4208 45.8178 31.401 45.7692C31.3811 45.7205 31.3761 45.6671 31.3866 45.6156C31.3971 45.5641 31.4227 45.5169 31.46 45.48L39.4559 37.5745ZM48.6279 62.4677C48.5907 62.5043 48.5435 62.5291 48.4923 62.539C48.4411 62.5488 48.3882 62.5433 48.3401 62.5232C48.292 62.503 48.2509 62.4691 48.222 62.4257C48.1931 62.3823 48.1776 62.3312 48.1775 62.279V54.5536H56.6344L48.6279 62.4668V62.4677Z" fill="#8E75FF"/>
<path opacity="0.405" d="M39.4559 45.9339H47.9137C48.0586 45.9339 48.1775 46.0519 48.1775 46.1981V54.5535H39.9855C39.8453 54.5535 39.7108 54.4978 39.6117 54.3985C39.5125 54.2992 39.4568 54.1646 39.4568 54.0242V45.9339H39.4559Z" fill="#8E75FF"/>
<path fill-rule="evenodd" clip-rule="evenodd" d="M141.913 37.0471C142.386 37.5155 142.943 37.7487 143.587 37.7487C144.251 37.7487 144.819 37.5155 145.292 37.0471C145.764 36.5787 146 36.0271 146 35.3894C146 34.7526 145.764 34.1952 145.292 33.7171C145.072 33.4866 144.807 33.3039 144.514 33.1805C144.221 33.0571 143.905 32.9957 143.587 33C142.943 33 142.386 33.239 141.913 33.7161C141.441 34.1952 141.205 34.7516 141.205 35.3903C141.205 36.0271 141.441 36.5787 141.913 37.0471ZM90.6367 43.1555C90.6367 43.2039 90.5961 43.2445 90.5468 43.2445H87.2273V49.4574C87.2273 49.9752 87.3587 50.3535 87.6196 50.5926C87.8805 50.8316 88.2632 50.9652 88.7657 50.9952C89.2257 51.0232 89.7862 51.0213 90.4482 50.9903L90.542 50.9855C90.554 50.9848 90.5661 50.9866 90.5775 50.9908C90.5888 50.995 90.5992 51.0015 90.608 51.0098C90.6168 51.0181 90.6237 51.0282 90.6285 51.0393C90.6333 51.0504 90.6357 51.0624 90.6357 51.0745V54.3948C90.6358 54.4169 90.6278 54.4382 90.6132 54.4546C90.5985 54.4711 90.5783 54.4815 90.5565 54.4839L90.4956 54.4906C87.896 54.7645 86.057 54.51 84.9804 53.7281C83.8845 52.9316 83.3375 51.5081 83.3375 49.4574V43.2445H80.8017C80.7782 43.2445 80.7556 43.2351 80.7389 43.2184C80.7222 43.2017 80.7128 43.1791 80.7128 43.1555V39.63C80.7128 39.5816 80.7525 39.541 80.8017 39.541H83.3366V37.0761C83.3366 37.0045 83.3791 36.9406 83.4439 36.9116L87.1026 35.3177C87.1161 35.3116 87.131 35.3089 87.1459 35.31C87.1607 35.3111 87.1751 35.316 87.1876 35.324C87.2001 35.3321 87.2103 35.3432 87.2174 35.3563C87.2246 35.3694 87.2283 35.3841 87.2282 35.399V39.541H90.5468C90.5951 39.541 90.6357 39.5806 90.6357 39.63V43.1555H90.6367ZM97.6913 42.1103C98.0527 41.1542 98.6509 40.4371 99.4849 39.959C100.308 39.4899 101.238 39.2431 102.185 39.2429C102.234 39.2429 102.275 39.2826 102.275 39.3329V43.3829C102.275 43.4032 102.271 43.4232 102.262 43.4417C102.254 43.4602 102.242 43.4768 102.227 43.4904C102.212 43.504 102.194 43.5143 102.175 43.5206C102.156 43.5269 102.136 43.5291 102.115 43.5271C100.993 43.4265 99.9855 43.6713 99.0925 44.2606C98.158 44.8771 97.6913 45.9029 97.6913 47.3371V54.3861C97.6913 54.3979 97.689 54.4096 97.6844 54.4204C97.6799 54.4313 97.6733 54.4411 97.6649 54.4494C97.6565 54.4577 97.6466 54.4642 97.6357 54.4687C97.6248 54.4731 97.6132 54.4753 97.6014 54.4752H93.8886C93.865 54.4752 93.8424 54.4658 93.8257 54.4491C93.809 54.4324 93.7996 54.4097 93.7996 54.3861V39.629C93.7996 39.5806 93.8393 39.54 93.8886 39.54H97.6014C97.6497 39.54 97.6903 39.5797 97.6903 39.629V42.1084L97.6913 42.1103ZM116.087 39.541C116.076 39.5408 116.064 39.543 116.053 39.5475C116.042 39.5519 116.032 39.5584 116.024 39.5667C116.016 39.575 116.009 39.5848 116.004 39.5957C116 39.6066 115.998 39.6182 115.998 39.63V41.3042C114.832 39.8497 113.193 39.1229 111.082 39.1229C109.071 39.1229 107.346 39.8845 105.909 41.4077C104.471 42.931 103.752 44.7977 103.752 47.0081C103.752 49.2184 104.471 51.0852 105.909 52.6084C107.346 54.1316 109.071 54.8932 111.082 54.8932C113.193 54.8932 114.831 54.1665 115.998 52.7129V54.3861C115.998 54.4345 116.038 54.4752 116.087 54.4752H119.799C119.849 54.4752 119.889 54.4355 119.889 54.3861V39.629C119.889 39.6173 119.887 39.6056 119.882 39.5947C119.878 39.5839 119.871 39.574 119.863 39.5657C119.854 39.5575 119.845 39.5509 119.834 39.5465C119.823 39.5421 119.811 39.5399 119.799 39.54H116.087V39.541ZM108.82 50.0545C109.604 50.8316 110.598 51.2197 111.806 51.2197C113.012 51.2197 114.013 50.8258 114.807 50.039C115.601 49.2532 115.998 48.2429 115.998 47.0081C115.998 45.7732 115.601 44.7629 114.807 43.9761C114.013 43.1903 113.012 42.7965 111.805 42.7965C110.599 42.7965 109.604 43.1903 108.819 43.9771C108.036 44.7629 107.643 45.7732 107.643 47.0081C107.643 48.2429 108.035 49.2581 108.82 50.0545ZM137.184 41.4077C135.746 39.8845 134.011 39.1229 131.981 39.1229C129.869 39.1229 128.241 39.8497 127.095 41.3032V39.63C127.095 39.6064 127.085 39.5837 127.069 39.567C127.052 39.5503 127.029 39.541 127.006 39.541H123.293C123.269 39.541 123.247 39.5503 123.23 39.567C123.213 39.5837 123.204 39.6064 123.204 39.63V60.359C123.204 60.4084 123.244 60.449 123.293 60.449H127.006C127.054 60.449 127.095 60.4084 127.095 60.359V52.7129C128.241 54.1665 129.869 54.8932 131.981 54.8932C134.011 54.8932 135.746 54.1316 137.184 52.6084C138.621 51.0852 139.34 49.2184 139.34 47.0081C139.34 44.7977 138.621 42.931 137.184 41.4077ZM128.271 50.0545C129.055 50.8316 130.05 51.2197 131.257 51.2197C132.463 51.2197 133.463 50.8258 134.257 50.039C135.052 49.2532 135.449 48.2429 135.449 47.0081C135.449 45.7732 135.052 44.7629 134.257 43.9761C133.463 43.1903 132.463 42.7965 131.257 42.7965C130.05 42.7965 129.055 43.1903 128.271 43.9771C127.487 44.7629 127.095 45.7732 127.095 47.0081C127.095 48.2429 127.487 49.2581 128.271 50.0545ZM141.746 54.4752C141.722 54.4752 141.7 54.4658 141.683 54.4491C141.666 54.4324 141.657 54.4097 141.657 54.3861V39.629C141.657 39.5806 141.697 39.54 141.746 39.54H145.459C145.508 39.54 145.548 39.5797 145.548 39.629V54.3871C145.548 54.4107 145.538 54.4334 145.522 54.4501C145.505 54.4668 145.482 54.4761 145.459 54.4761H141.746V54.4752ZM72.3739 44.7532C71.8404 44.5045 71.5747 44.1803 71.5747 43.7826C71.5747 43.4042 71.7399 43.1052 72.0724 42.8865C72.4038 42.6677 72.8213 42.5574 73.3239 42.5574C74.2873 42.5574 75.015 42.93 75.5079 43.6742C75.5243 43.6995 75.5491 43.7181 75.5779 43.727C75.6067 43.7358 75.6376 43.7343 75.6654 43.7226L78.9492 42.2835C78.9605 42.2785 78.9707 42.271 78.979 42.2617C78.9873 42.2525 78.9936 42.2415 78.9974 42.2297C79.0012 42.2178 79.0025 42.2053 79.0012 42.1929C78.9999 42.1805 78.996 42.1685 78.9898 42.1577C78.952 42.0946 78.9133 42.0321 78.8738 41.97C78.3123 41.0942 77.5846 40.441 76.6714 39.9445C75.6664 39.3968 74.5502 39.1229 73.3239 39.1229C71.6945 39.1229 70.3329 39.5458 69.236 40.3926C68.1411 41.2384 67.5932 42.3987 67.5932 43.8716C67.5932 44.8481 67.8599 45.659 68.3924 46.3065C68.907 46.9403 69.5774 47.4292 70.3377 47.7252C71.1012 48.0232 71.8656 48.2729 72.63 48.4713C73.3934 48.6706 74.0428 48.8952 74.5753 49.1439C75.1078 49.3926 75.3745 49.7158 75.3745 50.1145C75.3745 50.971 74.6807 51.3987 73.2939 51.3987C71.9728 51.3987 71.0577 50.9148 70.5484 49.949C70.5279 49.9083 70.4928 49.877 70.45 49.8613C70.4073 49.8457 70.3602 49.8469 70.3184 49.8648L67.0443 51.3019C67.0334 51.3067 67.0235 51.3137 67.0153 51.3224C67.0071 51.3311 67.0008 51.3413 66.9966 51.3525C66.9925 51.3637 66.9906 51.3756 66.9912 51.3875C66.9917 51.3995 66.9947 51.4112 66.9998 51.4219L67.0365 51.4965C68.1807 53.761 70.2662 54.8932 73.2939 54.8932C75.0228 54.8932 76.4656 54.48 77.6214 53.6545C78.7781 52.8271 79.356 51.6474 79.356 50.1145C79.356 49.0984 79.0893 48.2526 78.5568 47.5752C78.0548 46.9215 77.3813 46.4202 76.6115 46.1274C75.8622 45.8433 75.0968 45.6038 74.3192 45.4103C73.5548 45.2206 72.9064 45.0019 72.3739 44.7523V44.7532Z" fill="#1D1B84"/>
</g>
<defs>
<clipPath id="clip0_1_2579">
<rect width="115" height="30" fill="white" transform="translate(31 33)"/>
</clipPath>
</defs>
</svg>
