<svg width="176" height="96" viewBox="0 0 176 96" fill="none" xmlns="http://www.w3.org/2000/svg">
<rect width="176" height="96" rx="16" fill="white"/>
<g clip-path="url(#clip0_1_2587)">
<path d="M70.7048 43.9592V45.546H70.7535C71.3267 44.6965 72.2782 43.6959 74.3874 43.6959C76.0284 43.6959 77.2871 44.528 77.8266 45.7848H77.8753C78.3361 45.1493 78.8643 44.6684 79.4563 44.3278C80.1568 43.9241 80.9361 43.6924 81.9176 43.6924C84.1392 43.6924 86.1061 45.1318 86.1061 48.7618V55.6462H82.7193V49.2428C82.7193 47.4032 82.0525 46.3395 80.6663 46.3395C79.6511 46.3395 78.913 46.9784 78.6321 47.7648C78.5347 48.0351 78.4897 48.4037 78.4897 48.7127V55.6497H75.103V48.983C75.103 47.4207 74.4624 46.3359 73.0949 46.3359C72.001 46.3359 71.3154 47.1434 71.0344 47.835C70.9146 48.1299 70.8771 48.4704 70.8771 48.7899V55.6462H67.4866V43.9592H70.7048ZM103.587 43.9592V46.1639H103.68C104.302 44.4788 105.778 43.6959 107.074 43.6959C107.4 43.6959 107.58 43.7205 107.842 43.7696V46.831C107.532 46.7888 107.243 46.7467 106.838 46.7467C105.37 46.7467 104.347 47.5471 104.089 48.8004C104.032 49.0602 104.014 49.3411 104.014 49.6641V55.6497H100.537V43.9592H103.587ZM112.563 40.087V43.7661H115.5V46.7432H112.563V51.135C112.563 52.5568 112.949 53.2449 114.095 53.2449C114.635 53.2449 115.032 53.1817 115.376 53.101L115.421 55.569C114.961 55.7305 113.979 55.906 112.982 55.906C111.81 55.906 110.832 55.5234 110.236 54.9301C109.555 54.2525 109.24 53.1431 109.24 51.5633V40.087H112.563ZM65.1264 55.6462H61.7547V40.087H65.1264V55.6462ZM56.1352 51.4721C56.1352 51.6862 56.1164 51.9109 56.0528 52.104C55.7905 52.9149 54.8951 53.5995 53.7787 53.5995C52.8459 53.5995 52.1041 53.1045 52.1041 52.0548C52.1041 50.4504 53.9923 50.0046 56.1389 50.0151V51.4721H56.1352ZM59.5032 48.6741C59.5032 46.0235 58.2968 43.6959 54.217 43.6959C52.1228 43.6959 50.4594 44.2471 49.5528 44.7386L50.2159 46.8661C51.0439 46.3746 52.3663 45.9708 53.6176 45.9708C55.6894 45.9673 56.0265 47.0697 56.0265 47.7753V47.9438C51.5122 47.9368 48.6612 49.4008 48.6612 52.3848C48.6612 54.2069 50.111 55.913 52.6361 55.913C54.1908 55.913 55.4871 55.3338 56.2663 54.4035H56.3412C56.3412 54.4035 56.8582 56.4221 59.698 55.6497C59.5481 54.8072 59.4994 53.912 59.4994 52.8342V48.6741H59.5032ZM31.7239 40.087C32.0723 41.7335 33.0613 46.515 33.0613 46.515C33.4772 48.481 33.8593 50.5417 34.1478 52.1707H34.2002C34.4812 50.4399 34.9233 48.8004 35.3953 46.7713L37.0624 40.087H40.7526L42.3111 46.9433C42.7195 48.8496 43.0454 50.3206 43.3039 52.0934H43.3526C43.6336 50.303 44.0007 48.7724 44.4016 46.8134L45.9001 40.087H49.4404L45.0534 55.6462C42.2586 56.2185 41.1872 55.1653 40.8051 53.4942C40.4229 51.8196 39.6737 48.6354 39.6737 48.6354C39.2878 46.8906 38.9881 45.6619 38.7783 43.8715H38.7258C38.4261 45.6443 38.1114 46.8871 37.6469 48.6319L35.8074 55.6497C32.9527 56.1834 31.9636 55.3935 31.4167 53.2485C30.9446 51.4124 28 40.0905 28 40.0905H31.7239V40.087ZM94.9175 51.4721C94.9175 51.6862 94.8988 51.9109 94.8351 52.104C94.5728 52.9149 93.6775 53.5995 92.561 53.5995C91.6282 53.5995 90.8864 53.1045 90.8864 52.0548C90.8864 50.4504 92.7746 50.0046 94.9212 50.0151V51.4721H94.9175ZM98.2855 48.6741C98.2855 46.0235 97.0791 43.6959 92.9994 43.6959C90.9051 43.6959 89.2418 44.2471 88.3351 44.7386L88.9982 46.8661C89.8262 46.3746 91.1487 45.9708 92.3999 45.9708C94.4679 45.9673 94.8089 47.0697 94.8089 47.7753V47.9438C90.2982 47.9368 87.4473 49.4008 87.4473 52.3848C87.4473 54.2069 88.9008 55.913 91.4221 55.913C92.9731 55.913 94.2731 55.3338 95.0486 54.4035H95.1273C95.1273 54.4035 95.6443 56.4221 98.484 55.6497C98.3342 54.8072 98.2855 53.912 98.2855 52.8342V48.6741Z" fill="#041E42"/>
<path d="M129.168 50.2875C129.5 50.8557 129.478 51.4899 129.123 51.7795L122.991 55.999C122.353 56.3619 121.397 55.922 120.855 55.0018C120.31 54.078 120.407 53.0479 121.046 52.685L127.835 49.5837C128.26 49.4224 128.835 49.7193 129.168 50.2875ZM137.238 50.2875C137.574 49.7193 138.145 49.426 138.571 49.58L145.364 52.6813C146.002 53.0443 146.096 54.0744 145.554 54.9982C145.009 55.9183 144.049 56.3545 143.414 55.9953L137.283 51.7759C136.931 51.4899 136.905 50.8521 137.238 50.2875ZM133.201 52.575C133.869 52.575 134.418 52.9123 134.493 53.3559L135.154 60.6803C135.154 61.4061 134.291 62 133.205 62C132.122 62 131.255 61.4061 131.255 60.6803L131.913 53.3559C131.987 52.9123 132.536 52.575 133.201 52.575ZM137.283 44.2241L143.414 40.001C144.049 39.6381 145.009 40.0744 145.554 40.9982C146.096 41.922 146.002 42.9521 145.364 43.315L138.571 46.42C138.145 46.574 137.57 46.2807 137.238 45.7125C136.905 45.1443 136.931 44.5101 137.283 44.2241ZM127.835 46.42L121.046 43.315C120.411 42.9521 120.314 41.922 120.855 40.9982C121.397 40.0744 122.356 39.6381 122.991 40.001L129.123 44.2241C129.478 44.5064 129.5 45.1443 129.168 45.7125C128.835 46.2807 128.26 46.574 127.835 46.42ZM131.913 42.6441L131.255 35.3197C131.255 34.5939 132.118 34 133.205 34C134.291 34 135.154 34.5939 135.154 35.3197L134.493 42.6441C134.418 43.0841 133.869 43.425 133.201 43.425C132.536 43.425 131.987 43.0841 131.913 42.6441ZM147.212 55.9696V55.7863H147.38C147.436 55.7863 147.473 55.823 147.473 55.878C147.473 55.9293 147.436 55.9696 147.38 55.9696H147.212ZM147.074 56.3032C147.074 56.3216 147.089 56.3399 147.111 56.3399H147.182C147.201 56.3399 147.22 56.3216 147.22 56.3032V56.0943H147.335L147.429 56.3142C147.436 56.3289 147.447 56.3399 147.462 56.3399H147.548C147.574 56.3399 147.593 56.3142 147.582 56.2886C147.548 56.2226 147.515 56.1529 147.481 56.0833C147.537 56.0649 147.623 56.01 147.623 55.878C147.623 55.7387 147.507 55.658 147.391 55.658H147.111C147.093 55.658 147.074 55.6764 147.074 55.6947V56.3032ZM146.771 55.999C146.771 55.702 147.018 55.4601 147.32 55.4601C147.623 55.4601 147.869 55.6983 147.869 55.999C147.869 56.2959 147.627 56.5378 147.32 56.5378C147.014 56.5378 146.771 56.2959 146.771 55.999ZM146.641 55.999C146.641 56.3655 146.943 56.6661 147.32 56.6661C147.694 56.6661 148 56.3655 148 55.999C148 55.6324 147.694 55.3318 147.32 55.3318C146.943 55.3318 146.641 55.6324 146.641 55.999Z" fill="#FFC124"/>
</g>
<defs>
<clipPath id="clip0_1_2587">
<rect width="120" height="28" fill="white" transform="translate(28 34)"/>
</clipPath>
</defs>
</svg>
